<?xml version="1.0" standalone="no"?><!DOCTYPE svg PUBLIC "-//W3C//DTD SVG 1.1//EN" "http://www.w3.org/Graphics/SVG/1.1/DTD/svg11.dtd"><svg class="icon" width="200px" height="200.00px" viewBox="0 0 1024 1024" version="1.1" xmlns="http://www.w3.org/2000/svg"><path d="M512 512m-512 0a512 512 0 1 0 1024 0 512 512 0 1 0-1024 0Z" fill="#FBD971" /><path d="M292.571429 414.47619m-146.285715 0a146.285714 146.285714 0 1 0 292.571429 0 146.285714 146.285714 0 1 0-292.571429 0Z" fill="#FFFFFF" /><path d="M731.428571 414.47619m-146.285714 0a146.285714 146.285714 0 1 0 292.571429 0 146.285714 146.285714 0 1 0-292.571429 0Z" fill="#FFFFFF" /><path d="M512 755.809524m-121.904762 0a121.904762 121.904762 0 1 0 243.809524 0 121.904762 121.904762 0 1 0-243.809524 0Z" fill="#C03A2B" /><path d="M448.146286 292.571429a24.380952 24.380952 0 0 1-16.359619-6.290286l-155.574857-140.678095a24.380952 24.380952 0 0 1 32.719238-36.156953l155.574857 140.678095c9.97181 9.045333 10.752 24.454095 1.731047 34.450286-4.827429 5.290667-11.459048 7.996952-18.090666 7.996953zM575.853714 292.571429a24.380952 24.380952 0 0 1-16.359619-42.471619l155.574857-140.678096a24.454095 24.454095 0 0 1 34.450286 1.731048c9.020952 9.99619 8.240762 25.404952-1.731048 34.450286l-155.574857 140.678095a24.30781 24.30781 0 0 1-16.359619 6.290286z" fill="#F0C419" /><path d="M292.571429 414.47619m-73.142858 0a73.142857 73.142857 0 1 0 146.285715 0 73.142857 73.142857 0 1 0-146.285715 0Z" fill="#AF8066" /><path d="M731.428571 414.47619m-73.142857 0a73.142857 73.142857 0 1 0 146.285715 0 73.142857 73.142857 0 1 0-146.285715 0Z" fill="#AF8066" /></svg>