<?xml version="1.0" standalone="no"?><!DOCTYPE svg PUBLIC "-//W3C//DTD SVG 1.1//EN" "http://www.w3.org/Graphics/SVG/1.1/DTD/svg11.dtd"><svg class="icon" width="200px" height="200.00px" viewBox="0 0 1024 1024" version="1.1" xmlns="http://www.w3.org/2000/svg"><path d="M896.32 383.36c0 17.92-14.4 32.32-32.32 32.32s-32.32-14.4-32.32-32.32c0-17.6 14.4-32 32.32-32s32.32 14.4 32.32 32z" fill="#31CFFF" /><path d="M608 416.96v32.96c36.16 7.36 63.68 39.68 63.68 78.08 0 43.84-35.84 79.68-79.68 79.68-38.4 0-70.72-27.52-78.08-63.68h-32.96c0 2.24 0.64 4.48 0.96 6.72 10.56 51.2 55.68 89.6 110.08 89.6a112.224 112.224 0 0 0 16-223.36z m-32 32.96v-33.28a112.704 112.704 0 0 0-94.08 88.64c-0.32 2.24-0.96 4.48-0.96 6.72h32.96c6.4-31.04 31.04-55.68 62.08-62.08z" fill="#2D2220" /><path d="M671.68 528c0 38.4-27.52 70.72-63.68 78.08-36.16-7.36-63.68-39.68-63.68-78.08s27.52-70.72 63.68-78.08c36.16 7.36 63.68 39.68 63.68 78.08z" fill="#31CFFF" /><path d="M192 192h160v32H192zM608 320.64v32.64c89.92 8 159.68 83.2 159.68 174.72 0 96.96-78.72 175.68-175.68 175.68-91.52 0-166.72-70.08-174.72-159.68h-32.64c8 107.52 97.92 192 207.36 192a208 208 0 0 0 208-208c0-109.44-84.48-199.36-192-207.36z m-32 32.64v-32.64A207.904 207.904 0 0 0 384.64 512h32.64A174.72 174.72 0 0 1 576 353.28z" fill="#2D2220" /><path d="M592 352.32c-97.28 0-175.68 78.72-175.68 175.68 0 96.96 78.72 175.68 175.68 175.68 96.96 0 175.68-78.72 175.68-175.68 0-96.96-78.4-175.68-175.68-175.68z m0 319.36a143.68 143.68 0 1 1 0-287.36 143.68 143.68 0 0 1 0 287.36z" fill="#5FFFBA" /><path d="M928 576v-256c0-35.2-28.8-64-64-64H160c-35.2 0-64 28.8-64 64v416c0 35.2 28.8 64 64 64h704c35.2 0 64-28.8 64-64h-32c0 17.6-14.4 32-32 32H160c-17.6 0-32-14.4-32-32V320c0-17.6 14.4-32 32-32h704c17.6 0 32 14.4 32 32v256h32z" fill="#2D2220" /><path d="M864.32 351.36c0 17.92-14.4 32.32-32.32 32.32s-32.32-14.4-32.32-32.32c0-17.6 14.4-32 32.32-32s32.32 14.4 32.32 32zM352 320v128H256v-32h64v-64H192v-32zM192 416h32v32H192z" fill="#2D2220" /><path d="M192 352h128v64H192z" fill="#5FFFBA" /><path d="M960 688c0 8.96-7.04 16-16 16h-64c-8.96 0-16-7.04-16-16s7.04-16 16-16h64c8.96 0 16 7.04 16 16zM960 624c0 8.96-7.04 16-16 16h-64c-8.96 0-16-7.04-16-16s7.04-16 16-16h64c8.96 0 16 7.04 16 16z" fill="#2D2220" /></svg>