<?xml version="1.0" standalone="no"?><!DOCTYPE svg PUBLIC "-//W3C//DTD SVG 1.1//EN" "http://www.w3.org/Graphics/SVG/1.1/DTD/svg11.dtd"><svg class="icon" width="200px" height="200.00px" viewBox="0 0 1024 1024" version="1.1" xmlns="http://www.w3.org/2000/svg"><path d="M958.638298 428.380596c-37.909787-214.451745-221.314723-370.382979-446.638298-370.382979S103.271489 213.928851 65.361702 428.380596c-36.23217 14.401362-65.361702 56.690383-65.361702 98.042553 0 43.095149 27.974809 79.283745 66.625362 92.421447C113.511489 821.705532 294.912 973.061447 512 973.061447c217.109787 0 398.488511-151.377702 445.374638-354.216851v0.021787C996.025191 605.706894 1024 569.518298 1024 526.423149c0-41.35217-29.129532-83.641191-65.361702-98.042553z" fill="#FFD581" /><path d="M239.310979 758.435404a44.772766 44.772766 0 0 1-45.382809-43.923064c-0.413957-24.554213 42.855489-90.373447 43.182298-90.024851 0 0 45.709617 64.010894 46.123575 88.565107a44.81634 44.81634 0 0 1-43.923064 45.382808zM786.148766 758.435404A44.772766 44.772766 0 0 1 740.765957 714.51234c-0.413957-24.554213 42.855489-90.373447 43.182298-90.024851 0 0 45.709617 64.010894 46.123575 88.565107a44.81634 44.81634 0 0 1-43.923064 45.382808z" fill="#0096E6" /><path d="M661.024681 878.722723a21.787234 21.787234 0 0 1-21.787234-21.787234c0-68.106894-55.426723-123.533617-123.533617-123.533617S392.170213 788.828596 392.170213 856.935489a21.787234 21.787234 0 1 1-43.574468 0c0-92.138213 74.948085-167.108085 167.108085-167.108085s167.108085 74.948085 167.108085 167.108085a21.787234 21.787234 0 0 1-21.787234 21.787234z" fill="#CB8252" /><path d="M958.638298 428.380596v0.021787C920.728511 213.972426 733.881191 50.938553 508.557617 50.938553S103.271489 213.928851 65.361702 428.380596c0 0 368.334979 94.338723 615.315064-102.966468 12.091915-9.673532 29.674213-7.40766 38.301957 5.446808 44.642043 66.494638 126.976 147.194553 239.659575 97.51966z" fill="#9D6019" /><path d="M424.524255 597.427745a21.721872 21.721872 0 0 1-15.403574-6.38366 109.066894 109.066894 0 0 0-154.057532 0 21.765447 21.765447 0 1 1-30.807149-30.807149c59.435574-59.435574 156.214468-59.457362 215.67183 0a21.765447 21.765447 0 0 1-15.403575 37.190809zM784.340426 597.427745a21.721872 21.721872 0 0 1-15.403575-6.38366 109.066894 109.066894 0 0 0-154.057532 0 21.765447 21.765447 0 1 1-30.807149-30.807149c59.457362-59.457362 156.258043-59.435574 215.67183 0A21.765447 21.765447 0 0 1 784.340426 597.427745z" fill="#B27821" /></svg>