<?xml version="1.0" standalone="no"?><!DOCTYPE svg PUBLIC "-//W3C//DTD SVG 1.1//EN" "http://www.w3.org/Graphics/SVG/1.1/DTD/svg11.dtd"><svg class="icon" width="200px" height="200.00px" viewBox="0 0 1024 1024" version="1.1" xmlns="http://www.w3.org/2000/svg"><path d="M244.192 91.528C199.7 111.48 187.038 176.744 187.038 176.744s-55.174-34.842-101.666-13.992c-45.222 20.28-65.422 74.138-47.588 120.382 10.08 26.124 27.012 41.852 46.484 54.24 38.912 24.748 178.076 63.934 199.372 54.384 21.734-9.748 84.274-139.014 91.69-184.91 3.69-22.872 3.22-45.886-9.588-70.784-22.67-44.08-76.326-64.816-121.55-44.536" fill="#FF5E8A" /><path d="M796.294 390.672a199.34 199.34 0 0 0-57.604 8.484c-40.86-83.986-127.01-141.872-226.69-141.872s-185.83 57.888-226.69 141.872a199.29 199.29 0 0 0-57.604-8.484c-110.132 0-199.408 89.28-199.408 199.408s89.28 199.408 199.408 199.408c59.498 0 112.874-26.09 149.41-67.414 38.998 24.768 85.262 39.12 134.884 39.12s95.884-14.352 134.884-39.12c36.538 41.324 89.914 67.414 149.41 67.414 110.132 0 199.408-89.28 199.408-199.408s-89.276-199.408-199.408-199.408z" fill="#CFEB70" /><path d="M796.294 789.492c-59.498 0-112.874-26.09-149.41-67.414-38.998 24.768-85.262 39.12-134.884 39.12-49.618 0-95.884-14.352-134.884-39.12-36.538 41.324-89.914 67.414-149.41 67.414-68.884 0-129.606-34.93-165.43-88.038l95.576 238.942h708.296l95.578-238.942c-35.826 53.108-96.548 88.038-165.432 88.038z" fill="#FF5E8A" /><path d="M1024 590.08c0-125.56-102.15-227.706-227.708-227.706-14.494 0-28.914 1.376-43.088 4.104a281.022 281.022 0 0 0-90.578-93.604c-44.966-28.712-97.052-43.888-150.628-43.888-42.562 0-84.17 9.612-122.028 27.946 6.362-17.128 11.29-33.184 13.294-45.578 3.384-20.986 5.784-52.958-12.36-88.232-30.092-58.506-99.622-83.722-158.29-57.408C199.008 80.78 179.94 112.622 169.7 137.566c-25.25-9.044-61.616-16.014-95.906-0.634C15.124 163.24-12.292 231.932 11.384 293.32c14.312 37.088 39.782 56.532 57.698 67.93 13.254 8.432 34.096 17.29 56.594 25.356C51.226 424.09 0 501.194 0 590.08c0 45.676 13.568 88.222 36.814 123.91L131.58 950.904a28.3 28.3 0 0 0 26.274 17.788h708.296a28.3 28.3 0 0 0 26.274-17.788l94.766-236.92C1010.434 678.296 1024 635.756 1024 590.08zM64.186 272.95c-12.634-32.76 2.062-70.612 32.766-84.378 6.584-2.952 13.808-4.138 21.132-4.138 22.044 0 44.964 10.73 53.846 16.236a28.314 28.314 0 0 0 26.336 2.048 28.294 28.294 0 0 0 16.554-20.586c2.558-13.19 15.574-53.404 40.954-64.786 30.702-13.77 68.744 0.432 84.806 31.656 8.336 16.208 10.312 31.658 6.816 53.328-4.776 29.554-36.46 99.138-59.396 138.492a280.804 280.804 0 0 0-16.328 24.222c-29.89-0.118-140.192-31.18-172.212-51.548-18.236-11.6-28.786-23.728-35.274-40.546z m163.52 146.018a171.268 171.268 0 0 1 49.44 7.28 28.292 28.292 0 0 0 33.608-14.714 229.76 229.76 0 0 1 7.744-14.556c4.746-6.126 10.252-14.176 16.638-24.816 41.812-54.276 106.244-86.584 176.862-86.584 86.334 0 163.446 48.264 201.242 125.956a28.292 28.292 0 0 0 33.608 14.714 171.326 171.326 0 0 1 49.444-7.28c94.354 0 171.114 76.762 171.114 171.112 0 73.536-46.63 136.374-111.872 160.528-0.3 0.11-0.6 0.224-0.902 0.332-2.368 0.864-4.76 1.676-7.176 2.434-0.382 0.118-0.77 0.23-1.154 0.348a168.86 168.86 0 0 1-6.214 1.768c-0.532 0.142-1.062 0.292-1.594 0.428a165.272 165.272 0 0 1-8.918 2.002 172.858 172.858 0 0 1-6.952 1.246c-0.422 0.066-0.848 0.116-1.274 0.178a170.322 170.322 0 0 1-6.446 0.82c-0.602 0.066-1.206 0.136-1.812 0.196a173.694 173.694 0 0 1-7.334 0.56c-0.544 0.032-1.09 0.05-1.632 0.076a172.46 172.46 0 0 1-7.836 0.198c-48.974 0-95.704-21.09-128.21-57.858-0.642-0.724-1.318-1.4-2.018-2.046-0.224-0.206-0.458-0.396-0.688-0.594a29.854 29.854 0 0 0-1.5-1.222c-0.278-0.21-0.558-0.404-0.84-0.602a27.992 27.992 0 0 0-1.516-0.984c-0.292-0.176-0.58-0.35-0.878-0.518a28.74 28.74 0 0 0-1.714-0.872c-0.254-0.118-0.504-0.252-0.762-0.362-0.84-0.366-1.694-0.696-2.564-0.98-0.054-0.016-0.108-0.028-0.162-0.046a28.696 28.696 0 0 0-2.482-0.66c-0.286-0.062-0.574-0.108-0.86-0.162a28.856 28.856 0 0 0-1.848-0.292 29.446 29.446 0 0 0-2.776-0.19c-0.2-0.006-0.402-0.032-0.602-0.032-0.102 0-0.206 0.02-0.308 0.022-1.134 0.012-2.27 0.088-3.402 0.234-0.204 0.028-0.404 0.068-0.608 0.098-1.03 0.158-2.054 0.376-3.07 0.65-0.184 0.05-0.37 0.088-0.558 0.142-1.11 0.326-2.198 0.73-3.274 1.196-0.24 0.104-0.478 0.218-0.718 0.328-1.096 0.512-2.176 1.072-3.22 1.734-35.756 22.706-77.152 34.71-119.714 34.71s-83.958-12.004-119.714-34.71a28.138 28.138 0 0 0-14.24-4.394 28.286 28.286 0 0 0-19.046 6.576c-1.084 0.906-2.122 1.878-3.084 2.966a171.468 171.468 0 0 1-74.692 49.248 170.664 170.664 0 0 1-53.516 8.61c-2.626 0-5.234-0.082-7.836-0.198-0.544-0.026-1.09-0.046-1.632-0.076a173.44 173.44 0 0 1-7.334-0.56c-0.606-0.06-1.208-0.13-1.812-0.196a171.264 171.264 0 0 1-6.444-0.82c-0.424-0.062-0.852-0.114-1.274-0.178a168.5 168.5 0 0 1-6.946-1.246c-0.716-0.142-1.43-0.282-2.142-0.436a172.752 172.752 0 0 1-6.778-1.568c-0.534-0.136-1.066-0.286-1.602-0.428a169.348 169.348 0 0 1-6.202-1.766c-0.388-0.118-0.778-0.23-1.162-0.35a170.582 170.582 0 0 1-7.17-2.43c-0.306-0.11-0.608-0.224-0.914-0.336-65.238-24.152-111.866-86.99-111.866-160.524 0.002-94.342 76.764-171.104 171.114-171.104zM846.992 912.1H177.012l-46.41-116.024a227.6 227.6 0 0 0 18.758 7.822c0.122 0.046 0.246 0.088 0.368 0.132a226 226 0 0 0 10.21 3.46c0.164 0.05 0.334 0.096 0.498 0.15 3.164 0.976 6.352 1.882 9.564 2.722 0.41 0.108 0.814 0.224 1.226 0.328 3.09 0.79 6.206 1.5 9.332 2.16 0.722 0.152 1.44 0.312 2.164 0.456 3.034 0.612 6.086 1.152 9.154 1.638a220.922 220.922 0 0 0 11.74 1.558c0.67 0.07 1.346 0.132 2.02 0.198 3.308 0.32 6.63 0.582 9.964 0.762 0.418 0.022 0.84 0.034 1.26 0.054 3.602 0.17 7.216 0.274 10.846 0.274 57.352 0 112.382-21.718 154.232-60.256a279.202 279.202 0 0 0 104.56 30.81c8.446 0.766 16.956 1.152 25.498 1.152 45.57 0 90.09-10.994 130.058-31.962 41.852 38.54 96.88 60.256 154.236 60.256 3.628 0 7.244-0.104 10.846-0.274 0.418-0.02 0.84-0.032 1.26-0.054a222.38 222.38 0 0 0 9.964-0.762c0.674-0.066 1.35-0.128 2.02-0.198a232.504 232.504 0 0 0 20.896-3.196c0.724-0.148 1.446-0.306 2.168-0.458a226.96 226.96 0 0 0 9.332-2.16c0.41-0.104 0.814-0.22 1.226-0.328 3.212-0.84 6.404-1.746 9.57-2.722 0.164-0.05 0.328-0.096 0.49-0.148 3.44-1.072 6.848-2.236 10.226-3.466l0.348-0.124a226.886 226.886 0 0 0 18.77-7.824l-46.414 116.024z"  /><path d="M639.45 612.848c0.708 1.698 1.584 3.338 2.604 4.868 1.046 1.556 2.236 3 3.538 4.302a28.89 28.89 0 0 0 4.302 3.538c1.528 1.018 3.17 1.896 4.87 2.604 1.724 0.708 3.506 1.246 5.288 1.612 1.84 0.368 3.71 0.538 5.55 0.538a27.832 27.832 0 0 0 10.808-2.15 27.89 27.89 0 0 0 9.198-6.142 26.968 26.968 0 0 0 3.508-4.302c1.018-1.528 1.896-3.17 2.604-4.868 0.708-1.726 1.246-3.508 1.612-5.292 0.368-1.84 0.566-3.706 0.566-5.546a28.678 28.678 0 0 0-4.782-15.706 27.166 27.166 0 0 0-3.508-4.302 26.968 26.968 0 0 0-4.302-3.508 28.024 28.024 0 0 0-4.896-2.604 28.33 28.33 0 0 0-5.292-1.612 27.996 27.996 0 0 0-11.064 0c-1.782 0.368-3.566 0.906-5.288 1.612-1.7 0.708-3.342 1.584-4.87 2.604-1.556 1.018-3 2.208-4.302 3.508a28.89 28.89 0 0 0-3.538 4.302 28.024 28.024 0 0 0-2.604 4.896c-0.68 1.698-1.246 3.48-1.588 5.292-0.368 1.81-0.564 3.678-0.564 5.518s0.196 3.706 0.564 5.546c0.34 1.784 0.906 3.566 1.586 5.292zM694.988 678.34a133.904 133.904 0 0 0 7.12 7.456c25.062 24.296 58.034 37.678 92.842 37.678 73.552 0 133.392-59.84 133.392-133.392s-59.836-133.392-133.392-133.392c-13.084 0-26.058 1.91-38.558 5.676-14.96 4.51-23.436 20.294-18.924 35.258 4.508 14.964 20.292 23.444 35.258 18.928a76.94 76.94 0 0 1 22.224-3.268c42.346 0 76.798 34.452 76.798 76.798s-34.452 76.798-76.798 76.798c-20.02 0-39.002-7.714-53.45-21.718a77.994 77.994 0 0 1-4.092-4.286c-10.346-11.712-28.23-12.818-39.942-2.476-11.716 10.344-12.824 28.228-2.478 39.94zM332.286 612.848c0.708 1.698 1.584 3.338 2.604 4.868 1.018 1.556 2.208 3 3.508 4.302a28.89 28.89 0 0 0 4.302 3.538c1.528 1.018 3.17 1.896 4.896 2.604a27.988 27.988 0 0 0 10.81 2.15c1.84 0 3.706-0.17 5.518-0.538a29.628 29.628 0 0 0 5.32-1.612 28.66 28.66 0 0 0 4.868-2.604c1.556-1.046 3-2.236 4.302-3.538a28.89 28.89 0 0 0 3.538-4.302c1.018-1.528 1.896-3.17 2.604-4.868 0.708-1.726 1.246-3.508 1.612-5.292 0.368-1.84 0.538-3.706 0.538-5.546a27.838 27.838 0 0 0-2.15-10.81 27.89 27.89 0 0 0-6.142-9.198c-6.564-6.564-16.328-9.592-25.524-7.726a28.678 28.678 0 0 0-10.188 4.216c-1.556 1.018-3 2.208-4.302 3.508a26.968 26.968 0 0 0-3.508 4.302 28.024 28.024 0 0 0-2.604 4.896c-0.708 1.698-1.246 3.48-1.612 5.292-0.368 1.812-0.566 3.678-0.566 5.518s0.198 3.706 0.566 5.546c0.364 1.786 0.902 3.568 1.61 5.294zM229.052 723.472c34.808 0 67.78-13.382 92.848-37.684a134.66 134.66 0 0 0 7.106-7.442c10.352-11.71 9.25-29.592-2.46-39.942-11.71-10.352-29.592-9.25-39.942 2.458a79.134 79.134 0 0 1-4.104 4.298c-14.446 14.004-33.428 21.718-53.448 21.718-42.346 0-76.798-34.452-76.798-76.798s34.452-76.798 76.798-76.798c7.55 0 15.028 1.1 22.228 3.268 14.96 4.508 30.748-3.968 35.258-18.928 4.51-14.964-3.964-30.748-18.928-35.258a133.536 133.536 0 0 0-38.554-5.676c-73.552 0-133.392 59.84-133.392 133.392s59.836 133.392 133.388 133.392z"  /></svg>