<?xml version="1.0" standalone="no"?><!DOCTYPE svg PUBLIC "-//W3C//DTD SVG 1.1//EN" "http://www.w3.org/Graphics/SVG/1.1/DTD/svg11.dtd"><svg class="icon" width="200px" height="200.00px" viewBox="0 0 1024 1024" version="1.1" xmlns="http://www.w3.org/2000/svg"><path d="M512 0C260.042105 0 53.894737 206.147368 53.894737 458.105263V898.245614c0 39.522807 32.336842 71.859649 71.859649 71.859649h121.74821c74.734035 36.307088 165.941895 53.894737 264.497404 53.894737s189.763368-17.587649 264.497404-53.894737H898.245614c39.522807 0 71.859649-32.336842 71.859649-71.859649V458.105263C970.105263 206.147368 763.957895 0 512 0z" fill="#6E5847" /><path d="M916.210526 538.947368c-199.392561 0-368.334596-142.964772-426.97207-340.758456C246.801965 210.063719 53.894737 410.354526 53.894737 655.719298 53.894737 908.719158 259.00014 1024 512 1024S970.105263 908.719158 970.105263 655.719298c0-41.049825-5.479298-80.82414-15.611509-118.67621-12.629333 1.167719-25.384421 1.904281-38.283228 1.90428z" fill="#FDC794" /><path d="M242.795789 574.877193a17.946947 17.946947 0 0 1-12.701193-30.666105l152.432281-152.432281a17.946947 17.946947 0 1 1 25.402386 25.402386l-152.432281 152.432281a17.946947 17.946947 0 0 1-12.701193 5.263719z" fill="#F9A671" /><path d="M395.22807 574.877193a17.911018 17.911018 0 0 1-12.701193-5.263719l-152.432281-152.432281a17.946947 17.946947 0 1 1 25.402386-25.402386l152.432281 152.432281A17.946947 17.946947 0 0 1 395.22807 574.877193z" fill="#F9A671" /><path d="M520.982456 718.596491v140.144281c0 39.522807 32.336842 71.859649 71.859649 71.859649h17.964913c39.522807 0 71.859649-32.336842 71.859649-71.859649V718.596491c-30.68407 0.377263-129.131789 0-161.684211 0z" fill="#FB7B76" /><path d="M602.417404 837.362526a17.964912 17.964912 0 0 1-17.964913-17.964912v-2.96421c0.017965-46.026105-1.275509-74.464561-3.862456-84.704562A17.964912 17.964912 0 0 1 592.842105 700.631579c23.192702 0 24.935298 30.019368 26.336562 54.128281 1.221614 21.072842 1.221614 45.523088 1.203649 61.709473v2.946246a17.964912 17.964912 0 0 1-17.964912 17.946947z" fill="#E64C3C" /><path d="M700.631579 736.561404H305.403509a17.964912 17.964912 0 1 1 0-35.929825h395.22807a17.964912 17.964912 0 1 1 0 35.929825z" fill="#F9A671" /></svg>