<?xml version="1.0" standalone="no"?><!DOCTYPE svg PUBLIC "-//W3C//DTD SVG 1.1//EN" "http://www.w3.org/Graphics/SVG/1.1/DTD/svg11.dtd"><svg class="icon" width="200px" height="200.00px" viewBox="0 0 1024 1024" version="1.1" xmlns="http://www.w3.org/2000/svg"><path d="M463.962 175.756v-112.08c0-26.528 21.508-48.034 48.034-48.034 26.53 0 48.034 21.506 48.034 48.034v112.082" fill="#86CBED" /><path d="M592.142 191.746c75.176 31.39 128.006 105.606 128.006 192.162v48.034h-416.3v-48.034c0-86.59 52.872-160.828 128.092-192.198l160.202 0.036z" fill="#FAD2E3" /><path d="M592.142 191.746l-160.2-0.038-0.054 0.026 48.176 0.01c75.176 31.39 128.008 105.606 128.008 192.162v48.034h112.078v-48.034c-0.002-86.554-52.832-160.77-128.008-192.16z" fill="#F5A5C7" /><path d="M303.848 431.942h416.298v503.036c0 40.526-32.854 73.38-73.382 73.38H377.228c-40.528 0-73.38-32.854-73.38-73.38V431.942z" fill="#86CBED" /><path d="M608.068 431.942v503.036c0 40.526-32.856 73.38-73.382 73.38h112.078c40.528 0 73.382-32.854 73.382-73.38V431.942h-112.078z" fill="#297FA9" /><path d="M656.102 672.116v198.816c0 40.526-32.852 73.38-73.38 73.38h-141.448c-40.528 0-73.382-32.854-73.382-73.38v-198.816s85.93-37.904 160.116 0 128.094 0 128.094 0zM351.892 368.264h320.234v31.284H351.892z" fill="#FFFFFF" /><path d="M646.768 1024h-269.54c-49.086 0-89.022-39.934-89.022-89.022V416.3h447.582v518.678c0.002 49.088-39.934 89.022-89.02 89.022zM319.49 447.584v487.394c0 31.838 25.9 57.738 57.738 57.738h269.542c31.838 0 57.738-25.9 57.738-57.738V447.584H319.49z" fill="#1D1D1B" /><path d="M735.302 369.06c-5.54-84.488-58.094-158.71-137.056-191.714l-2.894-1.21-19.682-0.002V63.676C575.672 28.566 547.11 0 511.996 0S448.32 28.566 448.32 63.676v112.446l-19.64-0.002-2.896 1.21c-78.978 32.996-131.55 107.228-137.092 191.73-72.16 7.596-128.578 68.804-128.578 142.94v288.208h31.284V512c0-62.006 50.446-112.45 112.452-112.45h15.642v-15.642c0-76.892 45.238-145.834 115.524-176.504l154 0.014c70.266 30.676 115.494 99.614 115.494 176.488v15.642h15.642c62.006 0 112.452 50.446 112.452 112.45v288.208h31.284V512c-0.004-74.136-56.426-135.346-128.586-142.94zM479.604 63.676c0-17.86 14.532-32.392 32.392-32.392s32.392 14.532 32.392 32.392v112.454l-64.786-0.004 0.002-112.45z" fill="#1D1D1B" /><path d="M479.986 240.17h64.046v31.284h-64.046z" fill="#FFFFFF" /><path d="M582.722 959.956h-141.448c-49.088 0-89.024-39.934-89.024-89.024V661.922l9.328-4.114c3.788-1.668 93.656-40.44 173.546 0.382 64.294 32.85 110.142 2.388 112.06 1.076l24.638-17.324-0.084 30.178v198.816c0.006 49.084-39.93 89.02-89.016 89.02z m-199.188-277.01v187.986c0 31.838 25.902 57.74 57.74 57.74h141.448c31.838 0 57.738-25.902 57.738-57.74v-174.084c-25.312 8.904-68.156 15.468-119.566-10.804-53.036-27.096-114.348-10.916-137.36-3.098z" fill="#1D1D1B" /><path d="M367.888 480.342h144.11v31.284h-144.11zM544.012 480.342h32.022v31.284h-32.022z" fill="#FFFFFF" /></svg>