<?xml version="1.0" standalone="no"?><!DOCTYPE svg PUBLIC "-//W3C//DTD SVG 1.1//EN" "http://www.w3.org/Graphics/SVG/1.1/DTD/svg11.dtd"><svg class="icon" width="200px" height="200.00px" viewBox="0 0 1024 1024" version="1.1" xmlns="http://www.w3.org/2000/svg"><path d="M383.908 239.808h256.18v64.046h-256.18z" fill="#F5A5C7" /><path d="M624.08 239.804c-35.37 0-64.046-28.674-64.046-64.046V63.674c0-26.528-21.506-48.032-48.032-48.032-26.528 0-48.034 21.508-48.034 48.032v112.082c0 35.372-28.674 64.046-64.046 64.046" fill="#FAD2E3" /><path d="M648.524 1008.358H375.474c-30.716 0-55.612-24.898-55.612-55.612V359.464c0-30.716 24.898-55.614 55.612-55.614h273.052c30.716 0 55.614 24.898 55.614 55.614v593.282c-0.002 30.714-24.9 55.612-55.616 55.612z" fill="#86CBED" /><path d="M653.91 303.85h-128.092c27.742 0 50.228 22.488 50.228 50.226v604.054c0 27.74-22.488 50.226-50.228 50.226h128.092c27.742 0 50.228-22.488 50.228-50.226V354.076c0-27.738-22.486-50.226-50.228-50.226z" fill="#297FA9" /><path d="M655.734 288.576V224.16h-31.656c-26.69 0-48.404-21.714-48.404-48.404v-112.08C575.678 28.566 547.11 0 512 0c-35.112 0-63.678 28.566-63.678 63.676v112.08c0 26.69-21.714 48.404-48.404 48.404h-31.654v64.418c-35.926 3.668-64.046 34.102-64.046 70.978v593.094c0 39.342 32.006 71.348 71.348 71.348h272.864c39.342 0 71.35-32.006 71.35-71.348V359.558c0-36.878-28.12-67.31-64.046-70.982z m-176.126-112.818v-112.08c0-17.86 14.53-32.392 32.392-32.392 17.86 0 32.39 14.532 32.39 32.392v112.08c0 18.196 6.142 34.976 16.446 48.404h-97.674c10.304-13.43 16.446-30.212 16.446-48.404z m144.842 79.688v32.762h-224.9v-32.762h224.9z m64.046 697.206c0 22.092-17.972 40.064-40.066 40.064H375.568c-22.092 0-40.064-17.972-40.064-40.064v-24.722h128.462v-31.284h-128.462v-32.762h48.404V832.6h-48.404v-32.762h128.462v-31.284h-128.462v-32.762h48.404v-31.284h-48.404v-32.762h128.462v-31.284h-128.462V607.7h48.404v-31.284h-48.404v-32.762h128.462v-31.284h-128.462v-32.762h48.404v-31.284h-48.404v-32.762h128.462v-31.284h-128.462v-24.722c0-22.094 17.972-40.066 40.064-40.066h272.864c22.094 0 40.066 17.972 40.066 40.066v593.096z" fill="#1D1D1B" /><path d="M624.446 544.02h31.284v304.212h-31.284zM624.446 479.97h31.284v32.024h-31.284z" fill="#FFFFFF" /></svg>