<?xml version="1.0" standalone="no"?><!DOCTYPE svg PUBLIC "-//W3C//DTD SVG 1.1//EN" "http://www.w3.org/Graphics/SVG/1.1/DTD/svg11.dtd"><svg class="icon" width="200px" height="200.00px" viewBox="0 0 1024 1024" version="1.1" xmlns="http://www.w3.org/2000/svg"><path d="M801.169435 700.810631c0-193.913621-47.627907-316.385382-176.903654-357.209302 0-51.0299 74.843854-200.717608 74.843854-255.149502 0-17.009967 6.803987-68.039867-51.029901-68.039867-37.421927 0-37.421927 34.019934-68.039867 34.019934-30.61794 0-27.215947-34.019934-85.049834-34.019934-74.843854 0-102.059801 102.059801-102.0598 102.059801s-68.039867-6.803987-68.039868 34.019933 78.245847 132.677741 78.245848 183.707642c-129.275748 37.421927-176.903654 149.687708-176.903655 343.601328 0 0-68.039867 129.275748-68.039867 217.727575 0 88.451827 224.531561 105.461794 357.209302 105.461794s357.209302-17.009967 357.209303-105.461794-71.44186-200.717608-71.441861-200.717608z" fill="#D51C29" /><path d="M273.860465 901.528239c6.803987-74.843854 20.41196-146.285714 44.225914-217.727575 0-193.913621 34.019934-306.179402 119.069767-343.601328 0-51.0299-51.0299-139.481728-51.0299-183.707642s44.225914-34.019934 44.225913-34.019933 20.41196-98.657807 64.637874-102.059801h-3.401993c-74.843854 0-102.059801 102.059801-102.059801 102.059801s-68.039867-6.803987-68.039867 34.019933 78.245847 132.677741 78.245847 183.707642c-129.275748 37.421927-180.305648 149.687708-180.305648 343.601328 0 0-68.039867 129.275748-68.039867 217.727575 0 88.451827 224.531561 105.461794 357.209303 105.461794-85.049834 0-234.737542-17.009967-234.737542-105.461794z" fill="#E8384A" /><path d="M801.169435 700.810631c0-193.913621-47.627907-316.385382-176.903654-357.209302 0-51.0299 74.843854-200.717608 74.843854-255.149502 0-17.009967 6.803987-68.039867-51.029901-68.039867-10.20598 0-17.009967 3.401993-23.813953 6.803987 17.009967 13.607973 13.607973 47.627907 13.607973 61.23588 0 54.431894-51.0299 204.119601-51.0299 255.149502 85.049834 40.82392 119.069767 163.295681 119.069767 357.209302 27.215947 64.637874 40.82392 132.677741 44.225914 200.717608 0 88.451827-149.687708 105.461794-238.139535 105.461794 132.677741 0 357.209302-17.009967 357.209302-105.461794s-68.039867-200.717608-68.039867-200.717608z" fill="#B21C29" /><path d="M818.179402 694.006645c0-204.119601-54.431894-323.189369-176.903654-367.415283 10.20598-37.421927 20.41196-71.44186 34.019933-105.461794 20.41196-44.225914 34.019934-88.451827 40.82392-136.079734v-3.401993c3.401993-20.41196-3.401993-44.225914-17.009966-61.235881-13.607973-13.607973-30.61794-20.41196-51.029901-20.41196s-37.421927 6.803987-51.0299 23.813953c-6.803987 6.803987-10.20598 10.20598-17.009967 10.205981s-6.803987-3.401993-17.009967-6.803987c-17.009967-17.009967-44.225914-27.215947-68.039867-27.215947-68.039867 0-102.059801 71.44186-115.667774 102.059801-20.41196 0-40.82392 6.803987-57.833887 17.009966-10.20598 10.20598-17.009967 20.41196-17.009967 34.019934 6.803987 34.019934 20.41196 68.039867 40.823921 98.657807 13.607973 23.813953 27.215947 47.627907 34.019933 74.843854-122.471761 40.82392-176.903654 153.089701-176.903654 353.807309-10.20598 23.813953-68.039867 136.079734-68.039867 221.129568 0 105.461794 234.737542 122.471761 374.219269 122.471761s374.219269-17.009967 374.219269-122.471761c3.401993-85.049834-51.0299-183.707641-64.637874-207.521594z m-442.259136-459.269103c-17.009967-23.813953-27.215947-51.0299-34.019934-81.647841 0-3.401993 0-6.803987 3.401994-10.20598 13.607973-6.803987 30.61794-10.20598 44.225913-6.803987 6.803987 0 17.009967-3.401993 17.009967-13.607973 0 0 27.215947-88.451827 85.049834-88.451827 17.009967-3.401993 34.019934 3.401993 47.627907 17.009966 10.20598 10.20598 23.813953 17.009967 37.421927 17.009967 17.009967 0 30.61794-6.803987 40.82392-20.41196 6.803987-10.20598 17.009967-13.607973 27.215947-13.607973 10.20598 0 20.41196 3.401993 27.215947 6.803986 6.803987 10.20598 10.20598 23.813953 6.803986 37.421927v3.401994c-6.803987 44.225914-20.41196 85.049834-37.421926 125.873754-13.607973 34.019934-23.813953 71.44186-34.019934 105.461794-30.61794-6.803987-64.637874-10.20598-98.657807-10.20598s-64.637874 3.401993-95.255814 10.20598c-6.803987-23.813953-20.41196-51.0299-37.421927-78.245847z m136.079734 755.242524c-204.119601 0-340.199336-34.019934-340.199336-88.451827 0-85.049834 64.637874-207.521595 64.637874-207.521594 0-3.401993 3.401993-6.803987 3.401994-6.803987 0-244.943522 74.843854-340.199336 272.159468-340.199336s272.159468 105.461794 272.159468 357.209303c0 3.401993 0 6.803987 3.401994 10.20598 0 0 64.637874 108.863787 64.637874 190.511628 0 47.627907-136.079734 85.049834-340.199336 85.049833z" fill="#303C42" /><path d="M512 802.870432c-10.20598 0-17.009967-6.803987-17.009967-17.009967v-204.119601c0-10.20598 6.803987-17.009967 17.009967-17.009967s17.009967 6.803987 17.009967 17.009967v204.119601c0 10.20598-6.803987 17.009967-17.009967 17.009967z" fill="#F8F8F8" /><path d="M546.019934 819.880399h-6.803987l-27.215947-13.607974-27.215947 13.607974c-10.20598 3.401993-17.009967 0-23.813953-10.20598-3.401993-6.803987 0-17.009967 6.803986-20.411961l34.019934-17.009966c3.401993-3.401993 10.20598-3.401993 17.009967 0l34.019933 17.009966c6.803987 3.401993 10.20598 13.607973 6.803987 23.813954-3.401993 3.401993-6.803987 6.803987-13.607973 6.803987zM512 598.750831h-6.803987l-34.019933-17.009967c-6.803987-3.401993-10.20598-17.009967-6.803987-23.813954 3.401993-6.803987 13.607973-10.20598 20.41196-6.803986l27.215947 13.607973 27.215947-13.607973c10.20598-3.401993 17.009967 0 23.813953 10.20598 3.401993 6.803987 0 17.009967-6.803986 20.41196l-34.019934 17.009967h-10.20598zM600.451827 751.840532c-3.401993 0-6.803987 0-6.803986-3.401994l-176.903655-102.0598c-6.803987-3.401993-10.20598-13.607973-6.803987-23.813954 3.401993-6.803987 13.607973-10.20598 23.813954-6.803987l176.903654 102.059801c6.803987 3.401993 10.20598 13.607973 6.803987 23.813953-6.803987 6.803987-10.20598 10.20598-17.009967 10.205981z" fill="#F8F8F8" /><path d="M597.049834 789.262458c-10.20598 0-17.009967-10.20598-17.009967-17.009966l3.401993-37.421927c0-6.803987 3.401993-10.20598 6.803987-13.607974l30.61794-20.41196c6.803987-3.401993 17.009967 0 23.813954 6.803987 3.401993 6.803987 3.401993 17.009967-3.401993 20.41196l-23.813954 17.009967v30.61794c-3.401993 6.803987-10.20598 13.607973-20.41196 13.607973zM392.930233 670.192691c-10.20598 0-17.009967-6.803987-17.009967-17.009967 0-6.803987 3.401993-10.20598 6.803986-13.607973l23.813954-17.009967v-30.61794c0-10.20598 10.20598-17.009967 17.009967-17.009967 10.20598 0 17.009967 10.20598 17.009967 17.009967l-3.401994 37.421927c0 6.803987-3.401993 10.20598-6.803987 13.607973l-30.61794 20.41196c0 6.803987-3.401993 6.803987-6.803986 6.803987zM423.548173 751.840532c-10.20598 0-17.009967-6.803987-17.009967-17.009967 0-6.803987 3.401993-10.20598 6.803987-13.607974l176.903654-102.0598c6.803987-3.401993 17.009967-3.401993 23.813954 6.803986s3.401993 17.009967-6.803987 23.813954l-176.903655 102.059801h-6.803986z" fill="#F8F8F8" /><path d="M631.069767 670.192691c-3.401993 0-6.803987 0-10.20598-3.401993l-30.61794-20.41196c-3.401993-3.401993-6.803987-6.803987-6.803987-13.607974l-3.401993-37.421927c0-10.20598 6.803987-17.009967 17.009967-17.009967s17.009967 6.803987 17.009967 17.009967v30.61794l23.813953 17.009967c6.803987 3.401993 10.20598 17.009967 3.401994 23.813954 0 0-3.401993 3.401993-10.205981 3.401993zM426.950166 789.262458c-10.20598 0-17.009967-6.803987-17.009967-17.009966v-30.617941l-23.813953-17.009966c-6.803987-6.803987-6.803987-17.009967-3.401994-23.813954 6.803987-6.803987 13.607973-6.803987 20.411961-3.401993l30.61794 20.41196c3.401993 3.401993 6.803987 6.803987 6.803987 13.607973l3.401993 37.421927c0 10.20598-6.803987 20.41196-17.009967 20.41196z" fill="#F8F8F8" /></svg>