<?xml version="1.0" standalone="no"?><!DOCTYPE svg PUBLIC "-//W3C//DTD SVG 1.1//EN" "http://www.w3.org/Graphics/SVG/1.1/DTD/svg11.dtd"><svg class="icon" width="200px" height="200.00px" viewBox="0 0 1024 1024" version="1.1" xmlns="http://www.w3.org/2000/svg"><path d="M891.882 329.422h-36.394C820.152 170.982 680.052 55.48 512.46 55.48S204.77 170.982 169.432 329.422H132.118c-56.77 0-102.792 46.022-102.792 102.792s46.022 102.792 102.792 102.792H891.88c56.77 0 102.792-46.022 102.792-102.792s-46.02-102.792-102.79-102.792z" fill="#BBDCE3" /><path d="M141.982 535.006l75.204 433.512h589.628l75.204-433.512z" fill="#FECC85" /><path d="M585.182 624.646c-41.004 0-73.176 45.72-73.176 45.72s-30.348-45.72-73.194-45.72c-41.676 0-75.71 34.374-77.936 75.99-1.256 23.512 6.326 41.406 17.004 57.612 21.34 32.38 114.634 110.33 134.262 110.33 20.032 0 112.496-77.666 133.978-110.33 10.702-16.28 18.258-34.1 17-57.612-2.226-41.616-36.26-75.99-77.938-75.99" fill="#DE5E88" /><path d="M1024 432.214c0-72.85-59.268-132.118-132.118-132.118h-13.652c-21.596-74.422-65.836-141.19-126.256-189.892-67.24-54.198-152.302-84.046-239.516-84.046s-172.272 29.848-239.512 84.046c-60.418 48.706-104.658 115.47-126.254 189.892H132.12C59.268 300.096 0 359.364 0 432.214c0 67.788 51.328 123.788 117.154 131.248l71.138 410.066a29.324 29.324 0 0 0 28.896 24.314h589.63a29.33 29.33 0 0 0 28.896-24.314l71.138-410.066c65.82-7.46 117.148-63.46 117.148-131.248zM782.136 939.19H241.864L176.834 564.334h670.334l-65.032 374.856z m109.746-433.51H132.12c-40.512 0-73.466-32.958-73.466-73.466s32.954-73.466 73.466-73.466h37.316c0.804 0 1.598-0.038 2.388-0.102h439.572c16.194 0 29.326-13.132 29.326-29.326s-13.132-29.326-29.326-29.326H208.272c44.424-128.362 164.662-215.184 304.186-215.184 152.158 0 281.446 103.212 314.406 250.996a29.326 29.326 0 0 0 28.622 22.942h36.394c40.508 0 73.466 32.954 73.466 73.466s-32.954 73.466-73.464 73.466z"  /><path d="M426.958 848.15c60.134 49.756 77.052 49.756 85.184 49.756 8.226 0 25.342 0 85.178-49.676 26.33-21.86 59.412-52.74 73.302-73.868 10.246-15.582 23.652-40.344 21.78-75.286-3.114-58.18-50.212-103.754-107.224-103.754-30.312 0-55.6 16.066-72.826 31.388-16.998-15.39-42.204-31.388-73.542-31.388-57.008 0-104.106 45.574-107.22 103.758-1.872 35.016 11.548 59.752 21.804 75.314 13.782 20.906 47.04 51.808 73.564 73.756z m-36.798-145.946c1.426-26.594 23.25-48.234 48.652-48.234 21.836 0 42.662 23.632 48.758 32.612 5.332 8.032 14.308 12.88 23.948 13.05a29.506 29.506 0 0 0 24.4-12.29c6.202-8.658 28.566-33.37 49.262-33.37 25.402 0 47.228 21.64 48.656 48.236 0.75 14.016-2.79 25.588-12.22 39.928-16.708 25.406-84.944 83.02-109.388 95.664-24.374-12.79-93.722-71.202-109.86-95.69-9.418-14.294-12.956-25.856-12.208-39.906zM698.896 358.652c-1.904 0-3.842-0.206-5.716-0.586a30.528 30.528 0 0 1-5.516-1.672c-1.76-0.734-3.46-1.642-5.044-2.698a27.882 27.882 0 0 1-4.458-3.634 28.33 28.33 0 0 1-3.636-4.46 30.186 30.186 0 0 1-2.698-5.07 27.56 27.56 0 0 1-1.672-5.484 28.882 28.882 0 0 1-0.586-5.718c0-1.906 0.206-3.844 0.586-5.748 0.352-1.848 0.938-3.696 1.672-5.484 0.734-1.76 1.612-3.46 2.668-5.044a29.766 29.766 0 0 1 8.124-8.126 30.08 30.08 0 0 1 5.044-2.698 30.69 30.69 0 0 1 5.516-1.672 28.88 28.88 0 0 1 11.434 0 29.7 29.7 0 0 1 10.558 4.37 30.054 30.054 0 0 1 4.458 3.666c1.35 1.35 2.58 2.844 3.636 4.46a30.08 30.08 0 0 1 2.698 5.044c0.734 1.788 1.288 3.636 1.672 5.484 0.382 1.904 0.584 3.842 0.584 5.748 0 1.904-0.202 3.842-0.584 5.718a29.792 29.792 0 0 1-4.37 10.554 28.33 28.33 0 0 1-8.094 8.094c-1.584 1.056-3.284 1.964-5.074 2.698a29.64 29.64 0 0 1-11.202 2.258z"  /></svg>