<?xml version="1.0" standalone="no"?><!DOCTYPE svg PUBLIC "-//W3C//DTD SVG 1.1//EN" "http://www.w3.org/Graphics/SVG/1.1/DTD/svg11.dtd"><svg class="icon" width="200px" height="200.00px" viewBox="0 0 1024 1024" version="1.1" xmlns="http://www.w3.org/2000/svg"><path d="M511.997 128.02975c0-61.881879 50.165902-112.049781 112.049781-112.049781 61.881879 0 112.049781 50.165902 112.049781 112.049781 0 35.361931-28.667944 64.027875-64.027875 64.027875s-64.027875-28.667944-64.027875-64.027875c0-26.521948-21.499958-48.019906-48.019906-48.019906-26.521948-0.002-48.023906 21.499958-48.023906 48.019906z" fill="#39B54A" /><path d="M624.046781 15.981969c-5.449989 0-10.763979 0.521999-16.005969 1.271997 54.277894 7.785985 96.041812 54.341894 96.041813 110.775784 0 29.799942-20.45196 54.623893-48.019906 61.763879 5.14399 1.331997 10.44598 2.263996 16.005968 2.263996 35.361931 0 64.025875-28.667944 64.025875-64.027875 0-61.881879-50.165902-112.047781-112.047781-112.047781z" fill="#8CC63F" /><path d="M511.997 128.02975c0-61.881879-50.165902-112.049781-112.049781-112.049781S287.899438 66.145871 287.899438 128.02975c0 35.361931 28.667944 64.027875 64.027875 64.027875s64.027875-28.667944 64.027875-64.027875c0-26.521948 21.499958-48.019906 48.019906-48.019906 26.523948-0.002 48.021906 21.499958 48.021906 48.019906z" fill="#39B54A" /><path d="M399.951219 15.981969c5.449989 0 10.763979 0.521999 16.005969 1.271997-54.277894 7.785985-96.041812 54.341894-96.041813 110.775784 0 29.799942 20.45196 54.623893 48.019906 61.763879-5.14399 1.331997-10.44598 2.263996-16.005968 2.263996-35.361931 0-64.027875-28.667944-64.027875-64.027875 0-61.881879 50.165902-112.047781 112.049781-112.047781z" fill="#006837" /><path d="M383.94125 384.14125c0-70.723862 57.331888-128.05575 128.05575-128.05575s128.05575 57.331888 128.05575 128.05575l-96.041813 592.254843c0 17.679965-14.333972 32.013937-32.013937 32.013937s-32.013937-14.333972-32.013937-32.013937l-96.041813-592.254843z" fill="#F7931E" /><path d="M511.997 976.396093l-96.041812-592.254843c0-65.289872 48.897904-119.055767 112.049781-126.949752-5.25399-0.655999-10.573979-1.105998-16.005969-1.105998-70.723862 0-128.05575 57.331888-128.05575 128.05575l96.041813 592.254843c0 17.679965 14.333972 32.013937 32.013937 32.013937 5.861989 0 11.281978-1.689997 16.005969-4.439991-9.527981-5.545989-16.007969-15.753969-16.007969-27.573946z" fill="#F15A24" /><path d="M511.997 256.0855c-5.433989 0-10.751979 0.447999-16.005969 1.105998 63.151877 7.891985 112.049781 61.65988 112.049781 126.949752L511.999 976.396093c0 11.819977-6.477987 22.027957-16.005969 27.573946 4.723991 2.749995 10.14598 4.439991 16.005969 4.439991 17.679965 0 32.013937-14.333972 32.013937-32.013937l96.041813-592.254843c0-70.723862-57.331888-128.05575-128.05775-128.05575z" fill="#FBB03B" /><path d="M512.998998 752.88253h31.177939v31.177939H512.998998zM465.193091 559.580907h33.255935v31.177939h-33.255935z"  /><path d="M624.046781 0c-48.271906 0-90.361824 27.593946-112.049781 67.059869C490.313042 27.593946 448.221125 0 399.951219 0c-70.377863 0-127.637751 57.649887-127.637751 128.02975 0 43.899914 35.71793 79.615845 79.617845 79.615844s79.615845-35.90993 79.615844-79.811844c0-17.883965 14.549972-32.627936 32.431937-32.627936 17.591966 0 31.925938 14.917971 32.389937 31.233939v114.917776c-71.997859 7.791985-128.867748 68.841866-128.867749 142.783721v1.255997l96.489812 592.376843c0.731999 25.61595 22.223957 46.22591 48.011906 46.22591s47.237908-20.61196 47.967906-46.22591l96.445812-592.376843v-1.255997c0-73.939856-56.869889-134.991736-128.867748-142.783721V127.245751h0.044c0-16.627968 14.549972-32.039937 32.431936-32.039937 17.883965 0 32.433937 14.939971 32.433937 32.823936 0 43.899914 35.71593 79.615845 79.615844 79.615844s79.617844-35.90993 79.617845-79.811844C751.684532 57.453888 694.426644 0 624.046781 0zM400.369218 128.02975c0 26.709948-21.727958 48.437905-48.437905 48.437905s-48.439905-21.727958-48.439906-48.437905c0-53.187896 43.269915-96.459812 96.459812-96.459812a95.819813 95.819813 0 0 1 41.817918 9.571982 85.347833 85.347833 0 0 0-4.465991 0.012c-28.941943 0.883998-56.24189 15.905969-81.147842 44.655912l23.565954 20.413961c17.105967-19.745961 34.807932-30.93194 52.695897-33.385935-19.127963 10.979979-32.047937 31.599938-32.047937 55.191892z m222.525565 240.323531h-32.993935v31.177939h31.413938l-5.755988 35.333931h-150.369707v31.177939h145.291717l-26.073949 160.045687h-56.861889v31.177939h51.781899l-36.569929 224.481562h-29.763942v31.177939h24.683952l-10.13398 62.211878v1.255998c0 9.055982-6.531987 16.423968-15.58797 16.423968-8.731983 0-15.095971-6.851987-15.54597-15.45997h16.583968v-31.177939h-21.341958l-16.245969-99.769805h37.587927v-31.177939h-42.667917l-15.22997-93.533818h89.073826v-31.177939h-94.151816l-26.399948-162.125683h58.193886v-31.177939h-63.269876l-15.905969-97.689809h45.91991v-31.177939h-47.499907a112.073781 112.073781 0 0 1 10.06598-33.255935h101.867801v-31.17794h-79.547845c20.199961-19.931961 47.897906-32.245937 78.527847-32.245937 56.661889 0.004 103.279798 42.123918 110.925783 96.683812z m49.171904-191.883626c-26.709948 0-48.437905-21.727958-48.437905-48.437905 0-23.593954-12.919975-44.211914-32.047937-55.193892 17.889965 2.451995 35.58993 13.639973 52.695897 33.385935l23.565954-20.413961c-24.903951-28.749944-52.205898-43.773915-81.147842-44.655912a87.685829 87.685829 0 0 0-4.467991-0.012 95.827813 95.827813 0 0 1 41.819918-9.571982c53.187896 0 96.459812 43.269915 96.459812 96.459812 0 26.709948-21.729958 48.439905-48.439906 48.439905z"  /></svg>