<?xml version="1.0" standalone="no"?><!DOCTYPE svg PUBLIC "-//W3C//DTD SVG 1.1//EN" "http://www.w3.org/Graphics/SVG/1.1/DTD/svg11.dtd"><svg class="icon" width="200px" height="200.00px" viewBox="0 0 1024 1024" version="1.1" xmlns="http://www.w3.org/2000/svg"><path d="M348.926681 212.856416c5.31801 34.082067-62.900123 73.032143-152.370297 86.99017s-171.630335-36.438071-171.630335-36.438072 36.700072-37.010072 62.956123-56.69611" fill="#006837" /><path d="M353.34269 175.480343c0 34.496067-73.408143 62.460122-163.96032 62.460122s-163.96032-62.460122-163.96032-62.460122 73.408143-62.460122 163.96032-62.460122 163.96032 27.964055 163.96032 62.460122z" fill="#009245" /><path d="M189.38237 113.020221c-10.936021 0-21.610042 0.948002-31.948063 2.550005 68.074133 7.594015 117.83023 31.522062 117.830231 59.910117s-49.756097 52.316102-117.830231 59.910117c10.33802 1.602003 21.010041 2.550005 31.948063 2.550005 90.552177 0 163.96032-27.966055 163.96032-62.460122 0-34.496067-73.408143-62.460122-163.96032-62.460122z" fill="#006837" /><path d="M556.339087 865.663691c-54.592107 46.736091-125.498245 74.966146-202.998397 74.966146-172.482337 0-312.30461-139.822273-312.30461-312.30461S180.858353 316.018617 353.34069 316.018617s312.30461 139.822273 312.30461 312.30461c0 21.392042-2.152004 42.280083-6.248012 62.464122" fill="#F7931E" /><path d="M353.34269 316.018617c-15.964031 0-31.524062 1.578003-46.846091 3.888008 150.196293 22.656044 265.458518 151.898297 265.458518 308.416602 0 156.516306-115.262225 285.760558-265.458518 308.416603 15.32003 2.312005 30.88006 3.888008 46.846091 3.888007 172.482337 0 312.30461-139.824273 312.30461-312.30461-0.002-172.482337-139.824273-312.30461-312.30461-312.30461z" fill="#F9A94B" /><path d="M103.498202 815.705593l-46.846091-62.462122V534.633044l46.846091-93.694183zM525.169026 690.783349h-46.904092c0 147.572288 118.848232 265.458518 265.458519 265.458519s265.460518-117.88623 265.460518-265.458519h-45.456089" fill="#F15A24" /><path d="M151.042295 455.91089h33.256065v31.178061H151.042295zM244.574478 503.714984h31.178061v31.178061h-31.178061zM275.750539 534.893045h31.17806v31.178061h-31.17806zM151.042295 580.619134h33.256065v31.178061H151.042295zM417.086815 597.247166h31.178061v31.178061h-31.178061zM508.540993 455.91089h31.178061v31.178061H508.540993zM570.895115 628.423227h31.178061V659.601288h-31.178061zM321.476628 751.053467h31.178061v31.178061h-31.178061zM292.378571 782.231528h29.098057v31.178061h-29.098057zM352.654689 834.191629h31.178061v31.178061h-31.178061zM86.610169 534.893045h31.178061v31.178061H86.610169zM184.29836 690.777349h29.098057v31.178061H184.29836zM151.042295 767.681499h33.256065v31.178061H151.042295z"  /><path d="M213.396417 659.601288h31.178061v31.178061h-31.178061z"  /><path d="M962.33588 690.783349c0 120.552235-97.878191 218.614427-218.614427 218.614427s-218.614427-98.062192-218.614427-218.614427h437.228854z" fill="#F7931E" /><path d="M853.029666 690.783349c0 101.846199-69.722136 187.146366-163.96032 211.450413 17.498034 4.512009 35.74607 7.164014 54.654107 7.164014 120.736236 0 218.614427-98.062192 218.614427-218.614427h-109.308214z" fill="#F9A94B" /><path d="M666.505302 834.191629h31.178061v31.178061h-31.178061zM884.743728 721.95541h31.178061v31.178061h-31.178061z" fill="#FFFFFF" /><path d="M352.654689 441.366862h-31.178061v31.178061h31.178061v-16.628033h31.178061v-31.17806h-31.178061z"  /><path d="M678.027324 674.155317a331.394647 331.394647 0 0 0 3.210007-45.83209c0-175.574343-138.716271-319.346624-312.30461-327.512639V105.748207l39.904078-26.602052-17.292034-25.940051-53.790105 35.85607v40.81008c-7.650015-4.816009-16.634032-9.218018-26.886053-13.124026-32.696064-12.456024-75.842148-19.316038-121.486237-19.316038-95.192186 0-170.886334 63.474124-174.06234 66.17613L1.368003 175.480343l13.952027 11.872023c1.346003 1.146002 15.768031 13.226026 39.150076 26.752052-20.54804 18.136035-39.514077 37.222073-40.612079 38.330075L0 266.40652l16.776033 10.29002c3.110006 1.906004 68.194133 41.20208 147.404288 41.198081 11.346022 0 22.994045-0.808002 34.780068-2.646005 45.098088-7.036014 86.670169-20.46404 117.056228-37.812074 8.258016-4.714009 15.51003-9.652019 21.736043-14.748029v38.124075c-173.590339 8.166016-312.30461 151.940297-312.30461 327.512639 0 180.800353 147.094287 327.89264 327.89464 327.892641a328.030641 328.030641 0 0 0 195.162381-64.402126c50.478099 48.864095 119.182233 78.978154 194.904381 78.978154 154.970303 0 280.594548-126.078246 280.594548-281.046549v-15.58803H678.027324v-0.004zM51.682101 175.480343c25.42605-17.170034 78.036152-46.872092 137.700269-46.872092 41.946082 0 81.148158 6.136012 110.388215 17.274034 11.032022 4.202008 19.228038 8.598017 25.15605 12.812025h-63.724125v31.178061h66.872131c-6.032012 4.92001-15.15803 10.20202-28.304056 15.20803-29.238057 11.138022-68.442134 17.274034-110.388215 17.274033-59.664117-0.002-112.282219-29.708058-137.700269-46.874091z m248.876486 74.878146c-27.172053 15.51403-64.960127 27.618054-106.406208 34.084067-9.98402 1.558003-19.886039 2.242004-29.608058 2.242004-47.442093-0.002-90.198176-16.332032-113.334221-27.168053 9.268018-8.862017 21.530042-20.25204 33.200065-30.068059 29.058057 13.052025 65.308128 24.080047 104.972205 24.080047 45.646089 0 88.790173-6.858013 121.486237-19.316038 7.190014-2.740005 13.752027-5.722011 19.672039-8.920017-4.320008 6.928014-13.552026 15.688031-29.982059 25.066049z m645.619261 454.974889c-3.228006 43.828086-20.088039 84.618165-48.442095 117.416229l-117.416229-117.416229h165.858324z m-188.220368 21.730042l117.66223 117.66223c-33.014064 28.062055-73.918144 44.602087-117.66223 47.556093v-165.218323z m-50.828099-21.730042l-117.416229 117.416229c-28.354055-32.798064-45.216088-73.588144-48.442095-117.416229h165.858324z m19.650038 24.438047v162.302317c-42.720083-3.442007-82.620161-19.868039-114.952224-47.350092l114.952224-114.952225zM353.34069 925.037807c-66.844131 0-128.588251-22.222043-178.248348-59.664117h23.754046v-31.178061H165.592323v23.710047c-51.0601-41.840082-87.966172-100.344196-102.330199-167.124327h23.348045v-31.178061H58.274114a298.830584 298.830584 0 0 1-1.648003-31.284061c0-119.634234 71.176139-222.946435 173.398338-269.848527v20.53604h31.178061v-31.178061h-4.658009a294.842576 294.842576 0 0 1 81.210159-15.820031v32.446064h-16.276032v31.178061h62.354122v-31.178061h-14.902029v-32.446064c71.298139 3.708007 136.006266 32.714064 185.324362 78.174153h-14.538029v31.178061h31.178061v-14.582028c35.150069 37.916074 60.540118 84.996166 72.132141 137.212268h-9.778019v31.17806h14.948029c1.216002 10.888021 1.860004 21.944043 1.860004 33.150065 0 15.37203-1.194002 30.73006-3.530007 45.83209h-183.712359v15.58803c0 15.932031 1.344003 31.552062 3.896008 46.766091h-3.896008v31.178061h10.972021c10.804021 37.490073 29.190057 71.78414 53.404105 101.084198a296.81058 296.81058 0 0 1-173.85034 56.27011z m390.382763 14.578028c-132.540259 0-241.310471-103.740203-249.390488-234.282457h14.728029c3.736007 57.348112 27.998055 110.402216 68.598134 150.760294 44.020086 43.756085 103.312202 67.854133 166.064325 67.854133s121.728238-24.098047 165.748323-67.854133c40.598079-40.358079 64.596126-93.412182 68.288134-150.760294h15.35403c-8.082016 130.540255-116.850228 234.282458-249.390487 234.282457z"  /></svg>