<?xml version="1.0" standalone="no"?><!DOCTYPE svg PUBLIC "-//W3C//DTD SVG 1.1//EN" "http://www.w3.org/Graphics/SVG/1.1/DTD/svg11.dtd"><svg class="icon" width="200px" height="200.00px" viewBox="0 0 1024 1024" version="1.1" xmlns="http://www.w3.org/2000/svg"><path d="M512 512m-512 0a512 512 0 1 0 1024 0 512 512 0 1 0-1024 0Z" fill="#FBD971" /><path d="M448.292571 853.162667c-48.298667 0-96.377905-9.264762-140.702476-27.745524a24.380952 24.380952 0 1 1 18.773334-45.007238c74.410667 30.98819 161.060571 32.01219 237.787428 2.82819 78.433524-29.842286 138.532571-86.820571 169.179429-160.377905a24.380952 24.380952 0 1 1 45.007238 18.773334c-35.84 86.040381-105.764571 152.551619-196.827429 187.196952a375.466667 375.466667 0 0 1-133.217524 24.332191z" fill="#F0C419" /><path d="M365.714286 512H219.428571c-53.638095 0-97.52381-43.885714-97.523809-97.52381v-97.523809c0-53.638095 43.885714-97.52381 97.523809-97.52381h146.285715c53.638095 0 97.52381 43.885714 97.523809 97.52381v97.523809c0 53.638095-43.885714 97.52381-97.523809 97.52381z" fill="#D0E8F9" /><path d="M365.714286 536.380952H219.428571c-67.218286 0-121.904762-54.686476-121.904761-121.904762v-97.523809c0-67.218286 54.686476-121.904762 121.904761-121.904762h146.285715c67.218286 0 121.904762 54.686476 121.904762 121.904762v97.523809c0 67.218286-54.686476 121.904762-121.904762 121.904762zM219.428571 243.809524c-40.326095 0-73.142857 32.816762-73.142857 73.142857v97.523809c0 40.326095 32.816762 73.142857 73.142857 73.142858h146.285715c40.326095 0 73.142857-32.816762 73.142857-73.142858v-97.523809c0-40.326095-32.816762-73.142857-73.142857-73.142857H219.428571z" fill="#556080" /><path d="M463.238095 341.333333h97.52381v48.761905h-97.52381z" fill="#556080" /><path d="M292.571429 365.714286m-73.142858 0a73.142857 73.142857 0 1 0 146.285715 0 73.142857 73.142857 0 1 0-146.285715 0Z" fill="#556080" /><path d="M804.571429 512h-146.285715c-53.638095 0-97.52381-43.885714-97.523809-97.52381v-97.523809c0-53.638095 43.885714-97.52381 97.523809-97.52381h146.285715c53.638095 0 97.52381 43.885714 97.523809 97.52381v97.523809c0 53.638095-43.885714 97.52381-97.523809 97.52381z" fill="#D0E8F9" /><path d="M804.571429 536.380952h-146.285715c-67.218286 0-121.904762-54.686476-121.904762-121.904762v-97.523809c0-67.218286 54.686476-121.904762 121.904762-121.904762h146.285715c67.218286 0 121.904762 54.686476 121.904761 121.904762v97.523809c0 67.218286-54.686476 121.904762-121.904761 121.904762z m-146.285715-292.571428c-40.326095 0-73.142857 32.816762-73.142857 73.142857v97.523809c0 40.326095 32.816762 73.142857 73.142857 73.142858h146.285715c40.326095 0 73.142857-32.816762 73.142857-73.142858v-97.523809c0-40.326095-32.816762-73.142857-73.142857-73.142857h-146.285715z" fill="#556080" /><path d="M731.428571 365.714286m-73.142857 0a73.142857 73.142857 0 1 0 146.285715 0 73.142857 73.142857 0 1 0-146.285715 0Z" fill="#556080" /><path d="M105.423238 408.064l32.963048-35.961905-87.942096-80.603428a512.609524 512.609524 0 0 0-19.968 47.859809l74.947048 68.705524zM971.166476 286.549333l-86.308571 86.308572 34.474666 34.474666 72.533334-72.533333a512.853333 512.853333 0 0 0-20.699429-48.249905z" fill="#556080" /></svg>