<?xml version="1.0" standalone="no"?><!DOCTYPE svg PUBLIC "-//W3C//DTD SVG 1.1//EN" "http://www.w3.org/Graphics/SVG/1.1/DTD/svg11.dtd"><svg class="icon" width="200px" height="200.00px" viewBox="0 0 1024 1024" version="1.1" xmlns="http://www.w3.org/2000/svg"><path d="M777.828 425.747c-29.694-41.007-62.215-93.323-91.908-139.984-7.069 8.484-14.141 15.553-22.624 22.624-39.591 28.278-100.393 67.871-179.575 113.118-43.833 25.452-76.354 35.349-103.22 33.935 14.141 24.037 26.866 45.248 36.763 59.387 28.278 43.833 8.484 138.57-69.285 183.818-79.184 43.833-57.974 135.744-1.414 196.543 57.974 62.215 118.773 57.974 231.892-15.553 114.532-73.527 158.366-98.979 220.582-145.639 100.393-76.354 39.591-224.822-21.21-308.247z" fill="#DB4342" /><path d="M432.816 947.506c-35.349 0-65.043-15.553-93.323-46.661-39.591-42.42-57.974-91.908-50.903-135.744 4.242-31.108 24.037-57.974 55.145-74.941 36.763-21.21 63.629-55.145 73.527-96.151 7.069-28.278 4.242-56.56-7.069-74.941-8.484-14.141-22.624-35.349-36.763-59.387-1.414-2.829-1.414-5.655 0-8.484 1.414-2.829 4.242-4.242 7.069-4.242 26.866 0 57.974-11.312 98.979-33.935 62.215-35.349 121.602-72.113 178.162-111.705 8.484-5.655 15.553-12.725 21.21-19.795 1.414-2.829 4.242-4.242 7.069-2.829 2.829 0 5.655 1.414 7.069 4.242 31.108 48.076 62.215 98.979 91.908 138.57 57.974 80.596 128.671 237.549 18.382 320.975-49.49 38.177-87.668 62.215-162.608 110.29l-57.974 35.349c-62.215 39.591-110.29 59.387-149.882 59.387zM396.053 463.924c11.312 18.382 21.21 35.349 28.278 46.661 14.141 22.624 16.967 55.145 8.484 89.082-11.312 45.248-41.007 83.425-82.010 107.462-26.866 15.553-42.42 35.349-46.661 62.215-5.655 36.763 12.725 83.425 46.661 120.189 53.731 57.974 110.29 55.145 220.582-16.967l57.974-36.763c74.941-48.076 113.118-72.113 162.608-108.878 98.979-74.941 32.522-220.582-21.21-295.523-26.866-36.763-56.56-83.425-86.253-130.086-5.655 5.655-11.312 9.899-16.967 14.141-56.56 39.591-117.361 77.77-179.575 113.118-35.349 21.21-65.043 32.522-91.908 35.349z" fill="#640F13" /><path d="M568.56 817.421c-104.636 62.215-192.301 53.731-216.339 5.655-18.382-36.763-33.935-77.77-39.591-94.737-35.349 48.076-12.725 117.361 32.522 166.848 57.974 62.215 118.773 57.974 231.892-15.553 100.393-63.629 147.054-91.908 197.956-130.086 1.414 1.414-101.806 5.655-206.441 67.871z" fill="#BC3839" /><path d="M432.816 947.506c-35.349 0-65.043-15.553-93.323-46.661-39.591-42.42-57.974-91.908-50.903-135.744 4.242-31.108 24.037-57.974 55.145-74.941 36.763-21.21 63.629-55.145 73.527-96.151 7.069-28.278 4.242-56.56-7.069-74.941-8.484-14.141-22.624-35.349-36.763-59.387-1.414-2.829-1.414-5.655 0-8.484 1.414-2.829 4.242-4.242 7.069-4.242 26.866 0 57.974-11.312 98.979-33.935 62.215-35.349 121.602-72.113 178.162-111.705 8.484-5.655 15.553-12.725 21.21-19.795 1.414-2.829 4.242-4.242 7.069-2.829 2.829 0 5.655 1.414 7.069 4.242 31.108 48.076 62.215 98.979 91.908 138.57 57.974 80.596 128.671 237.549 18.382 320.975-49.49 38.177-87.668 62.215-162.608 110.29l-57.974 35.349c-62.215 39.591-110.29 59.387-149.882 59.387zM396.053 463.924c11.312 18.382 21.21 35.349 28.278 46.661 14.141 22.624 16.967 55.145 8.484 89.082-11.312 45.248-41.007 83.425-82.010 107.462-26.866 15.553-42.42 35.349-46.661 62.215-5.655 36.763 12.725 83.425 46.661 120.189 53.731 57.974 110.29 55.145 220.582-16.967l57.974-36.763c74.941-48.076 113.118-72.113 162.608-108.878 98.979-74.941 32.522-220.582-21.21-295.523-26.866-36.763-56.56-83.425-86.253-130.086-5.655 5.655-11.312 9.899-16.967 14.141-56.56 39.591-117.361 77.77-179.575 113.118-35.349 21.21-65.043 32.522-91.908 35.349z" fill="#640F13" /><path d="M560.076 46.8c24.037 0 48.076 7.069 62.215 28.278 21.21 29.694 21.21 72.113 62.215 117.361 28.278 29.694 22.624 66.458 1.414 94.737 29.694 46.661 62.215 98.979 91.908 139.984 12.725 18.382 25.452 38.177 38.177 60.801 9.899 19.795 18.382 39.591 25.452 60.801 0 1.414 1.414 4.242 1.414 5.655 1.414 4.242 2.829 8.484 2.829 11.312 0 2.829 1.414 5.655 1.414 8.484 1.414 4.242 1.414 7.069 2.829 11.312 1.414 4.242 1.414 9.899 1.414 14.141 0 2.829 0 7.069 1.414 9.899v19.795c0 4.242 0 7.069-1.414 11.312 0 2.829 0 4.242-1.414 7.069-1.414 4.242-1.414 8.484-2.829 14.141 0 1.414 0 2.829-1.414 4.242-1.414 5.655-4.242 11.312-7.069 16.967 0 1.414-1.414 2.829-2.829 4.242-1.414 4.242-4.242 8.484-7.069 12.725-1.414 1.414-2.829 4.242-4.242 5.655-2.829 4.242-5.655 7.069-8.484 11.312l-4.242 4.242c-4.242 4.242-9.899 9.899-15.553 14.141-7.069 5.655-15.553 11.312-22.624 16.967-50.903 36.763-97.564 65.043-197.956 130.086-60.801 39.591-106.048 57.974-144.226 57.974-32.522 0-60.801-14.141-87.668-43.833-45.248-48.076-66.458-114.532-35.349-162.608 8.484-12.725 19.795-24.037 36.763-33.935 79.184-43.833 97.564-138.57 69.285-183.818-8.484-14.141-22.624-35.349-36.763-59.387-21.21 0-38.177-5.655-55.145-14.141-39.591-19.795-41.007-66.458-65.043-104.636-24.037-38.177-36.763-79.184 8.484-125.845 43.833-46.661 173.921-130.086 213.509-147.054 24.037-9.899 53.731-18.382 80.596-18.382M560.076 11.452c-35.349 0-69.285 11.312-91.908 21.21-45.248 18.382-178.162 106.048-224.822 155.538-72.113 73.527-28.278 144.226-12.725 168.263 7.069 9.899 11.312 22.624 16.967 35.349 11.312 28.278 25.452 62.215 62.215 82.010 16.967 8.484 33.935 14.141 49.49 16.967 11.312 19.795 21.21 33.935 26.866 43.833 5.655 8.484 9.899 28.278 2.829 53.731-8.484 32.522-31.108 62.215-60.801 79.184-19.795 11.312-35.349 25.452-48.076 42.42-1.414 1.414-2.829 4.242-4.242 5.655-33.935 57.974-18.382 138.57 42.42 202.199 33.935 36.763 70.7 55.145 113.118 55.145 43.833 0 94.737-19.795 164.022-63.629 21.21-14.141 41.007-25.452 57.974-36.763 62.215-39.591 100.393-63.629 141.398-93.323 7.069-5.655 15.553-11.312 22.624-16.967 7.069-5.655 12.725-11.312 19.795-16.967l5.655-5.655c4.242-4.242 8.484-8.484 11.312-14.141 1.414-2.829 2.829-4.242 4.242-7.069 2.829-4.242 5.655-9.899 8.484-15.553v-1.414c1.414-1.414 1.414-2.829 2.829-4.242l8.484-21.21c0-1.414 1.414-2.829 1.414-5.655 1.414-7.069 2.829-12.725 4.242-16.967 0-2.829 1.414-5.655 1.414-8.484 0-4.242 1.414-9.899 1.414-14.141v-24.037c0-4.242 0-8.484-1.414-12.725 0-5.655-1.414-11.312-2.829-16.967 0-4.242-1.414-7.069-1.414-11.312v-1.414c-1.414-2.829-1.414-5.655-1.414-8.484-1.414-4.242-2.829-8.484-2.829-12.725 0-2.829-1.414-4.242-1.414-7.069-7.069-22.624-15.553-45.248-26.866-66.458-11.312-24.037-25.452-46.661-41.007-66.458-24.037-33.935-52.317-76.354-77.77-118.773 19.795-39.591 14.141-84.838-16.967-118.773-19.795-22.624-28.278-42.42-36.763-65.043-5.655-16.967-12.725-32.522-24.037-48.076-14.141-18.382-41.007-41.007-91.908-41.007z" fill="#640F13" /><path d="M482.306 65.183c-39.591 16.967-169.678 100.393-213.509 147.054s-32.522 87.668-8.484 125.845c24.037 38.177 26.866 84.838 65.043 104.636 39.591 19.795 79.184 24.037 158.366-19.795 79.184-43.833 138.57-84.838 179.575-113.118 39.591-28.278 57.974-77.77 22.624-117.361-41.007-45.248-41.007-87.668-62.215-117.361-32.522-45.248-100.393-26.866-141.398-9.899z" fill="#FFF5CA" /><path d="M380.499 465.339c-22.624 0-41.007-5.655-59.387-15.553-28.278-14.141-39.591-42.42-49.49-67.871-5.655-12.725-11.312-26.866-18.382-39.591-22.624-35.349-41.007-83.425 8.484-135.744 46.661-48.076 178.162-132.914 216.339-148.468 32.522-14.141 113.118-39.591 151.297 12.725 8.484 12.725 14.141 26.866 19.795 42.42 8.484 22.624 18.382 48.076 41.007 73.527 16.967 18.382 24.037 39.591 21.21 60.801-2.829 25.452-19.795 50.903-45.248 69.285-56.56 39.591-117.361 77.77-179.575 113.118-43.833 25.452-77.77 35.349-106.048 35.349zM485.134 73.665c-36.763 15.553-165.437 98.979-210.684 144.226-42.42 43.833-28.278 80.596-7.069 114.532 8.484 14.141 14.141 28.278 19.795 42.42 9.899 25.452 18.382 46.661 41.007 57.974 36.763 18.382 74.941 22.624 149.882-19.795 62.215-35.349 121.602-72.113 178.162-111.705 21.21-15.553 35.349-35.349 36.763-56.56 1.414-16.967-4.242-32.522-16.967-46.661-26.866-28.278-36.763-55.145-45.248-79.184-5.655-14.141-9.899-26.866-18.382-38.177-26.866-43.833-97.564-19.795-127.26-7.069z" fill="#640F13" /><path d="M306.972 277.279c-11.312 0-16.967-2.829-19.795-4.242-4.242-2.829-5.655-8.484-2.829-12.725 2.829-4.242 8.484-5.655 11.312-2.829 1.414 0 32.522 12.725 137.155-52.317 115.947-72.113 124.43-91.908 124.43-111.705 0-4.242 4.242-8.484 8.484-8.484s8.484 4.242 8.484 8.484c0 29.694-19.795 55.145-132.914 125.845-72.113 48.076-113.118 57.974-134.329 57.974z" fill="#640F13" /><path d="M427.162 873.979c-4.242 0-8.484 0-12.725-1.414-4.242 0-8.484-5.655-7.069-9.899 0-4.242 5.655-8.484 9.899-7.069 14.141 1.414 29.694 0 48.076-5.655 4.242-1.414 9.899 1.414 11.312 5.655 1.414 4.242-1.414 9.899-5.655 11.312-16.967 4.242-31.108 7.069-43.833 7.069zM367.774 849.941c-2.829 0-4.242-1.414-5.655-2.829-4.242-4.242-8.484-8.484-12.725-14.141-2.829-4.242-2.829-9.899 1.414-12.725 4.242-2.829 9.899-2.829 12.725 1.414 4.242 4.242 7.069 8.484 11.312 12.725 4.242 2.829 4.242 8.484 0 12.725-1.414 1.414-4.242 2.829-7.069 2.829zM516.242 845.7c-2.829 0-5.655-1.414-7.069-4.242-2.829-4.242-1.414-9.899 2.829-12.725 4.242-2.829 9.899-5.655 14.141-8.484 4.242-2.829 9.899-1.414 12.725 2.829 2.829 4.242 1.414 9.899-2.829 12.725-5.655 2.829-9.899 7.069-15.553 9.899-1.414-1.414-2.829 0-4.242 0zM328.182 791.968c-2.829 0-7.069-1.414-8.484-5.655-12.725-26.866-18.382-50.903-18.382-52.317-1.414-4.242 1.414-9.899 7.069-11.312 4.242-1.414 9.899 1.414 11.312 7.069 0 0 5.655 22.624 16.967 48.076 1.414 4.242 0 9.899-4.242 11.312-2.829 2.829-4.242 2.829-4.242 2.829z" fill="#640F14" /><path d="M445.542 342.322c0 19.522 15.826 35.349 35.349 35.349s35.349-15.826 35.349-35.349c0 0 0 0 0 0 0 0 0 0 0 0 0-19.522-15.826-35.349-35.349-35.349-19.522 0-35.349 15.826-35.349 35.349 0 0 0 0 0 0z" fill="#DB4342" /><path d="M480.892 387.57c-24.037 0-43.833-19.795-43.833-43.833s19.795-43.833 43.833-43.833 45.248 18.382 45.248 42.42c0 25.452-19.795 45.248-45.248 45.248zM480.892 316.87c-14.141 0-26.866 11.312-26.866 26.866s11.312 26.866 26.866 26.866 26.866-11.312 26.866-26.866-11.312-26.866-26.866-26.866z" fill="#640F13" /><path d="M502.101 298.491c0 19.522 15.826 35.349 35.349 35.349s35.349-15.826 35.349-35.349c0 0 0 0 0 0 0 0 0 0 0 0 0-19.522-15.826-35.349-35.349-35.349-19.522 0-35.349 15.826-35.349 35.349 0 0 0 0 0 0z" fill="#DB4342" /><path d="M537.452 342.322c-24.037 0-43.833-19.795-43.833-43.833s19.795-43.833 43.833-43.833c24.037 0 43.833 19.795 43.833 43.833 1.414 24.037-18.382 43.833-43.833 43.833zM537.452 271.623c-14.141 0-26.866 11.312-26.866 26.866s11.312 26.866 26.866 26.866 26.866-11.312 26.866-26.866-11.312-26.866-26.866-26.866z" fill="#640F13" /><path d="M465.339 319.699c-2.829 0-4.242-1.414-7.069-2.829-1.414-1.414-19.795-22.624-4.242-69.285 1.414-2.829 4.242-5.655 7.069-5.655s7.069 1.414 8.484 4.242c0 0 16.967 25.452 36.763 26.866 4.242 0 8.484 4.242 8.484 9.899 0 4.242-4.242 8.484-9.899 8.484-16.967-1.414-29.694-11.312-39.591-19.795-4.242 24.037 4.242 35.349 4.242 35.349 2.829 4.242 2.829 9.899-1.414 12.725h-2.829z" fill="#640F13" /><path d="M808.937 537.452c-8.484 28.278-22.624 45.248-49.49 79.184-39.591 49.49 16.967 134.329 16.967 134.329 7.069-5.655 14.141-11.312 22.624-16.967 80.596-60.801 59.387-164.022 18.382-247.447l-8.484 50.903z" fill="#FFDF00" /><path d="M776.415 759.447h-1.414c-2.829 0-4.242-1.414-5.655-4.242 0-1.414-60.801-90.494-16.967-144.226l5.655-7.069c22.624-28.278 35.349-43.833 42.42-67.871l7.069-49.49c0-4.242 4.242-7.069 7.069-7.069 4.242 0 7.069 1.414 9.899 4.242 56.56 111.705 49.49 205.028-19.795 257.345-7.069 5.655-15.553 11.312-22.624 16.967-2.829 1.414-4.242 1.414-5.655 1.414zM820.247 517.655l-2.829 21.21v1.414c-8.484 28.278-22.624 45.248-45.248 73.527l-5.655 7.069c-28.278 35.349 0 94.737 12.725 115.947 4.242-2.829 9.899-7.069 14.141-11.312 73.527-55.145 50.903-149.882 26.866-207.855z" fill="#640F13" /><path d="M776.415 661.882h-2.829l-55.145-19.795c-4.242-1.414-7.069-7.069-5.655-11.312s7.069-7.069 11.312-5.655l55.145 19.795c4.242 1.414 7.069 7.069 5.655 11.312-1.414 2.829-4.242 5.655-8.484 5.655zM776.415 701.474h-1.414l-55.145-11.312c-4.242-1.414-8.484-5.655-7.069-9.899s5.655-8.484 9.899-7.069l55.145 11.312c4.242 1.414 8.484 5.655 7.069 9.899 0 4.242-4.242 7.069-8.484 7.069z" fill="#640F13" /><path d="M734.53 510.337c0 0-0.001 0.001-0.001 0.002-9.106 18.147-9.697 36.267-1.322 40.468 8.375 4.202 22.548-7.102 31.653-25.249 0-0.001 0.001-0.001 0.001-0.002 0 0 0-0.001 0.001-0.001 9.106-18.147 9.697-36.267 1.322-40.468-8.375-4.202-22.548 7.102-31.653 25.249 0 0.001-0.001 0.001-0.001 0.002z" fill="#BC3839" /></svg>