<?xml version="1.0" standalone="no"?><!DOCTYPE svg PUBLIC "-//W3C//DTD SVG 1.1//EN" "http://www.w3.org/Graphics/SVG/1.1/DTD/svg11.dtd"><svg class="icon" width="200px" height="200.00px" viewBox="0 0 1024 1024" version="1.1" xmlns="http://www.w3.org/2000/svg"><path d="M511.593 738.332c97.409 0 176.661-79.291 176.661-176.64 0-97.409-79.251-176.64-176.661-176.64-97.389 0-176.621 79.251-176.621 176.64s79.211 176.64 176.621 176.64z" fill="#CFCF5A" /><path d="M507.198 738.097c1.483 0.037 2.913 0.235 4.413 0.235 97.556 0 176.64-79.085 176.64-176.64 0-97.556-79.085-176.64-176.64-176.64-1.483 0-2.913 0.175-4.413 0.217-94.775 2.342-170.979 79.211-172.113 174.277-0.020 0.704-0.116 1.405-0.116 2.128 0 96.081 76.714 174.066 172.226 176.43z" fill="#FFFFFF" /><path d="M717.071 561.692c0 32.743-7.907 64.997-23.022 94.033h48.245c5.153 0 9.9 2.754 12.517 7.206 2.541 4.471 2.541 9.979 0 14.428-2.547 4.327-7.186 7.185-12.491 7.185-0.005 0-0.019 0-0.025 0h-66.421c-37.508 50.042-97.098 82.59-164.281 82.59-68.143 0-128.474-33.488-165.884-84.757-2.051 1.334-4.555 2.135-7.246 2.148l-239.527-0.001v130.445c0 21.943 18.998 42.623 44.009 42.623h737.334c24.092 0 40.573-21.633 40.533-42.623v-130.445h-77.593c-0.023 0-0.054 0-0.085 0-7.936 0-14.37-6.433-14.37-14.37 0-2.669 0.727-5.17 1.996-7.312 2.506-4.27 7.143-7.139 12.451-7.139 0.001 0 0.002 0 0.003 0h77.593v-172.991h-219.596c10.485 25.009 15.872 51.858 15.854 78.977zM880.237 324.093h-87.453c-10.387 0-19.974-5.097-25.070-14.097l-6.112-10.701h-500.714l-4.609 9.277c-4.823 9.301-14.377 15.548-25.391 15.548-0.157 0-0.31-0.001-0.463-0.002h-87.468c-22.905 0-44.009 18.844-44.009 41.92v87.861h238.066c36.259-58.515 100.866-97.661 174.588-97.661s138.295 39.147 174.553 97.661h234.65v-87.861c0-19.819-14.683-41.939-40.573-41.939z" fill="#f4ea2a" /><path d="M702.485 195.679c-16.012-20.657-38.23-29.344-73.902-29.344l-261.671-0.097c-22.432 0-35.204 1.309-53.732 28.31l-52.288 104.769h500.734l-59.142-103.639z" fill="#f4ea2a" /><path d="M528.813 421.559c-57.321 0.167-107.455 30.784-135.085 76.527-1.35 2.518-1.962 4.822-1.962 7.265 0 7.98 6.467 14.45 14.45 14.45 4.985 0 9.38-2.524 11.977-6.362 22.949-37.963 63.916-62.941 110.718-63.017 7.553-0.407 13.597-6.714 13.597-14.428 0-7.714-6.049-14.019-13.665-14.428zM392.918 532.245c-0.987-0.24-2.116-0.378-3.281-0.378-6.807 0-12.506 4.718-14.019 11.060-2.657 11.322-4.14 18.334-4.14 31.026-0.007 0.225-0.020 0.485-0.020 0.751 0 7.969 6.461 14.428 14.428 14.428 7.969 0 14.428-6.461 14.428-14.428 0-0.262-0.004-0.526-0.021-0.787 0.001-9.529 1.037-14.313 3.36-24.31 0.241-0.991 0.38-2.128 0.38-3.297 0-6.802-4.697-12.499-11.021-14.042z" fill="#848D2F" /><path d="M321.966 482.713h-223.034v173.010h230.217c-14.522-27.326-23.047-59.749-23.047-94.164 0-28.464 5.834-55.564 16.366-80.174z" fill="#f4ea2a" /><path d="M799.972 655.722h-14.407c-0.225-0.007-0.485-0.020-0.751-0.020-7.969 0-14.428 6.461-14.428 14.428 0 7.969 6.461 14.428 14.428 14.428 0.262 0 0.526-0.004 0.787-0.021l14.374 0.001c7.958 0 14.407-6.452 14.407-14.407s-6.452-14.407-14.407-14.407z" fill="#848D2F" /><path d="M880.258 266.415h-70.739l-57.891-101.412c-0.566-1.036-1.23-1.795-1.934-2.735-13.019-17.038-29.566-30.71-48.611-40.078 8.391-1.413-26.775-14.397-72.521-14.397l-261.691 0.217c-28.938 0-59.492 3.535-89.599 38.465-4.353 5.037-8.69 10.737-13.005 17.184-0.704 1.036-1.326 1.892-1.892 2.987l-49.825 99.753h-69.61c-58.107 0-101.667 46.117-101.667 99.595v448.973c0 53.927 44.559 100.3 101.667 100.3h737.334c52.854 0 98.228-42.582 98.228-100.3v-448.955c0-57.147-44.514-99.595-98.249-99.595zM98.935 482.713h223.034c-10.020 23.28-15.844 50.378-15.844 78.837 0 34.412 8.522 66.839 23.569 95.28l-230.754-1.109v-173.010zM920.812 655.722h-77.593c-0.225-0.007-0.485-0.020-0.751-0.020-7.969 0-14.428 6.461-14.428 14.428 0 7.969 6.461 14.428 14.428 14.428 0.262 0 0.526-0.004 0.787-0.021l77.554 0.001v130.445c0.037 20.97-16.441 42.623-40.533 42.623h-737.334c-25.009 0-44.009-20.677-44.009-42.623v-130.445h239.628c2.695-0.039 5.193-0.861 7.284-2.246 37.257 51.372 97.584 84.858 165.729 84.858 67.187 0 126.774-32.567 164.281-82.59h66.421c0.004 0 0.019 0 0.023 0 5.303 0 9.94-2.858 12.451-7.118 1.234-2.141 1.941-4.629 1.941-7.284 0-2.655-0.705-5.141-1.941-7.286-2.519-4.267-7.163-7.132-12.477-7.133h-48.243c14.508-27.323 23.027-59.743 23.027-94.146 0-28.47-5.834-55.577-16.366-80.193l220.080 1.328v172.991zM334.967 561.692c0-0.723 0.097-1.428 0.116-2.128 1.184-95.027 77.301-171.891 171.922-174.274 1.654-0.042 3.099-0.22 4.58-0.22h0.020c97.556 0 176.64 79.085 176.64 176.64s-79.085 176.64-176.64 176.64h-0.020c-1.463 0-2.913-0.194-4.393-0.235-95.516-2.383-172.226-80.365-172.226-176.43zM920.812 453.876h-234.65c-36.259-58.515-100.825-97.661-174.553-97.661s-138.333 39.147-174.588 97.661h-238.084v-87.861c0-23.079 21.106-41.92 44.009-41.92h87.489c10.934 0 20.931-5.721 25.831-15.54l4.609-9.277 52.288-104.769c18.53-26.982 31.298-28.31 53.732-28.31l261.671 0.097c35.67 0 57.891 8.69 73.902 29.344l65.232 114.317c5.097 9.004 14.683 14.097 25.070 14.097h87.453c25.871 0 40.551 22.101 40.551 41.92v87.901z" fill="#504C23" /></svg>