<?xml version="1.0" standalone="no"?><!DOCTYPE svg PUBLIC "-//W3C//DTD SVG 1.1//EN" "http://www.w3.org/Graphics/SVG/1.1/DTD/svg11.dtd"><svg class="icon" width="200px" height="200.00px" viewBox="0 0 1024 1024" version="1.1" xmlns="http://www.w3.org/2000/svg"><path d="M512 200.784314a20.078431 20.078431 0 0 1-20.078431-20.078432c0-99.649255 81.076706-180.705882 180.705882-180.705882a20.078431 20.078431 0 1 1 0 40.156863c-77.502745 0-140.54902 63.066353-140.54902 140.549019a20.078431 20.078431 0 0 1-20.078431 20.078432z" fill="#AF8066" /><path d="M512 602.352941m-421.647059 0a421.647059 421.647059 0 1 0 843.294118 0 421.647059 421.647059 0 1 0-843.294118 0Z" fill="#FBD971" /><path d="M411.607843 522.039216a20.078431 20.078431 0 0 1-20.078431-20.078432c0-33.209725-27.025569-60.235294-60.235294-60.235294s-60.235294 27.025569-60.235294 60.235294a20.078431 20.078431 0 1 1-40.156863 0c0-55.356235 45.035922-100.392157 100.392157-100.392157s100.392157 45.035922 100.392157 100.392157a20.078431 20.078431 0 0 1-20.078432 20.078432zM773.019608 522.039216a20.078431 20.078431 0 0 1-20.078432-20.078432c0-33.209725-27.025569-60.235294-60.235294-60.235294s-60.235294 27.025569-60.235294 60.235294a20.078431 20.078431 0 1 1-40.156863 0c0-55.356235 45.035922-100.392157 100.392157-100.392157s100.392157 45.035922 100.392157 100.392157a20.078431 20.078431 0 0 1-20.078431 20.078432z" fill="#F29C1F" /><path d="M579.343059 655.902118a129.827137 129.827137 0 0 0-84.168784-10.621491c-53.067294 10.902588-94.930824 55.436549-102.339765 109.126275a130.570039 130.570039 0 0 0 132.116078 149.102431c51.360627-1.104314 96.978824-34.775843 117.358432-81.940078 12.308078-28.511373 12.348235-55.195608 6.405019-79.550745-23.130353 19.255216-101.918118-61.721098-69.37098-86.116392z" fill="#8697CB" /><path d="M695.496784 657.167059c-10.300235-24.053961-33.771922-40.237176-58.428235-40.237177-11.243922 0-22.186667 3.192471-32.527059 9.517177-62.885647 38.450196-118.14149 107.279059-120.470588 110.190431l-4.577882 5.722353 49.312627 73.948863 8.051451-4.35702c19.034353-10.280157 35.699451-18.954039 50.43702-26.624 46.039843-23.993725 73.848471-38.470275 95.774117-61.419921 17.709176-18.532392 22.367373-43.469804 12.428549-66.740706z" fill="#7C6498" /></svg>