<?xml version="1.0" standalone="no"?><!DOCTYPE svg PUBLIC "-//W3C//DTD SVG 1.1//EN" "http://www.w3.org/Graphics/SVG/1.1/DTD/svg11.dtd"><svg class="icon" width="200px" height="200.00px" viewBox="0 0 1024 1024" version="1.1" xmlns="http://www.w3.org/2000/svg"><path d="M512 0C260.042105 0 53.894737 206.147368 53.894737 458.105263V898.245614c0 39.522807 32.336842 71.859649 71.859649 71.859649h121.74821c74.734035 36.307088 165.941895 53.894737 264.497404 53.894737s189.763368-17.587649 264.497404-53.894737H898.245614c39.522807 0 71.859649-32.336842 71.859649-71.859649V458.105263C970.105263 206.147368 763.957895 0 512 0z" fill="#6E5847" /><path d="M69.506246 537.043088A458.374737 458.374737 0 0 0 53.894737 655.719298C53.894737 908.719158 259.00014 1024 512 1024S970.105263 908.719158 970.105263 655.719298C970.105263 410.354526 763.418947 209.488842 520.982456 197.614035h-17.964912c-242.436491 11.874807-449.122807 212.740491-449.122807 458.105263C53.894737 908.719158 259.00014 1024 512 1024S970.105263 908.719158 970.105263 655.719298" fill="#FDC794" /><path d="M235.034947 643.575018A36.917895 36.917895 0 0 1 197.614035 607.357754c-0.341333-20.246456 35.336982-74.518456 35.606456-74.231017 0 0 37.690386 52.780912 38.03172 73.027368a36.953825 36.953825 0 0 1-36.217264 37.420913zM791.947228 643.575018A36.917895 36.917895 0 0 1 754.526316 607.357754c-0.341333-20.246456 35.336982-74.518456 35.606456-74.231017 0 0 37.690386 52.780912 38.031719 73.027368a36.953825 36.953825 0 0 1-36.217263 37.420913zM863.806877 787.294316A36.917895 36.917895 0 0 1 826.385965 751.077053c-0.341333-20.246456 35.336982-74.518456 35.606456-74.231018 0 0 37.690386 52.780912 38.031719 73.027369a36.953825 36.953825 0 0 1-36.217263 37.420912zM161.396772 787.294316a36.917895 36.917895 0 0 1-37.420912-36.217263c-0.341333-20.246456 35.336982-74.518456 35.606456-74.231018 0 0 37.690386 52.780912 38.031719 73.027369a36.953825 36.953825 0 0 1-36.217263 37.420912z" fill="#0096E6" /><path d="M403.941053 479.232a17.911018 17.911018 0 0 1-12.701193-5.263719 89.285614 89.285614 0 0 0-63.505965-26.354527 89.213754 89.213754 0 0 0-63.52393 26.354527 17.946947 17.946947 0 1 1-25.402386-25.402386 124.945965 124.945965 0 0 1 88.926316-36.881965 124.85614 124.85614 0 0 1 88.908351 36.881965 17.946947 17.946947 0 0 1-12.701193 30.666105zM772.491228 479.232a17.911018 17.911018 0 0 1-12.701193-5.263719 89.285614 89.285614 0 0 0-63.52393-26.354527c-23.965193 0-46.529123 9.359719-63.505965 26.354527a17.946947 17.946947 0 1 1-25.402386-25.402386 124.928 124.928 0 0 1 88.908351-36.881965 124.85614 124.85614 0 0 1 88.926316 36.881965 17.946947 17.946947 0 0 1-12.701193 30.666105z" fill="#F9A671" /><path d="M323.368421 874.46007c0-109.136842 88.477193-161.684211 197.614035-161.68421s197.614035 52.547368 197.614035 161.68421-88.477193 17.964912-197.614035 17.964912-197.614035 91.17193-197.614035-17.964912z" fill="#802D40" /><path d="M520.982456 892.550737c32.300912 0 62.769404 7.994386 89.698807 16.401965-0.718596-48.990316-40.528842-88.513123-89.698807-88.513123s-88.980211 39.522807-89.698807 88.513123c26.929404-8.425544 57.397895-16.401965 89.698807-16.401965z" fill="#E64C3C" /></svg>