<?xml version="1.0" standalone="no"?><!DOCTYPE svg PUBLIC "-//W3C//DTD SVG 1.1//EN" "http://www.w3.org/Graphics/SVG/1.1/DTD/svg11.dtd"><svg class="icon" width="200px" height="200.00px" viewBox="0 0 1024 1024" version="1.1" xmlns="http://www.w3.org/2000/svg"><path d="M512 0C260.042105 0 53.894737 206.147368 53.894737 458.105263V898.245614c0 39.522807 32.336842 71.859649 71.859649 71.859649h121.74821c74.734035 36.307088 165.941895 53.894737 264.497404 53.894737s189.763368-17.587649 264.497404-53.894737H898.245614c39.522807 0 71.859649-32.336842 71.859649-71.859649V458.105263C970.105263 206.147368 763.957895 0 512 0z" fill="#6E5847" /><path d="M69.506246 537.043088A458.374737 458.374737 0 0 0 53.894737 655.719298C53.894737 908.719158 259.00014 1024 512 1024S970.105263 908.719158 970.105263 655.719298C970.105263 410.354526 763.418947 209.488842 520.982456 197.614035h-17.964912c-242.436491 11.874807-449.122807 212.740491-449.122807 458.105263C53.894737 908.719158 259.00014 1024 512 1024S970.105263 908.719158 970.105263 655.719298" fill="#FDC794" /><path d="M329.997474 608.112281c-79.171368 0-132.383439-45.523088-132.383439-113.304702a108.490105 108.490105 0 0 1 108.346386-108.364351 89.501193 89.501193 0 0 1 89.393404 89.393404 74.464561 74.464561 0 0 1-74.392702 74.374736 62.589754 62.589754 0 0 1-62.517895-62.517894 53.248 53.248 0 0 1 53.17614-53.176141 17.964912 17.964912 0 1 1 0 35.929825 17.282246 17.282246 0 0 0-17.246315 17.246316c0 14.659368 11.928702 26.58807 26.58807 26.58807 21.216561 0 38.462877-17.246316 38.462877-38.444912a53.535439 53.535439 0 0 0-53.463579-53.463579A72.506386 72.506386 0 0 0 233.54386 494.807579c0 57.038596 49.816702 77.374877 96.453614 77.374877 57.936842 0 89.824561-38.283228 89.824561-107.789474a17.964912 17.964912 0 1 1 35.929825 0c0 88.638877-48.181895 143.719298-125.754386 143.719299zM724.668632 578.254596a89.501193 89.501193 0 0 1-89.393404-89.393403 74.482526 74.482526 0 0 1 74.392702-74.392702 62.607719 62.607719 0 0 1 62.517895 62.53586 53.248 53.248 0 0 1-53.176141 53.17614 17.964912 17.964912 0 1 1 0-35.929824c9.503439 0 17.246316-7.742877 17.246316-17.246316 0-14.659368-11.928702-26.606035-26.58807-26.606035-21.216561 0-38.462877 17.246316-38.462877 38.462877a53.535439 53.535439 0 0 0 53.463579 53.463579 72.506386 72.506386 0 0 0 72.416561-72.434526c0-57.038596-49.816702-77.374877-96.453614-77.374878-57.936842 0-89.824561 38.283228-89.824561 107.789474a17.964912 17.964912 0 1 1-35.929825 0c0-88.656842 48.19986-143.719298 125.754386-143.719298 79.171368 0 132.383439 45.523088 132.383439 113.304702a108.490105 108.490105 0 0 1-108.346386 108.36435z" fill="#F9A671" /><path d="M323.368421 844.350877c0-109.136842 88.477193-161.684211 197.614035-161.68421s197.614035 52.547368 197.614035 161.68421-88.477193 17.964912-197.614035 17.964912-197.614035 91.17193-197.614035-17.964912z" fill="#802D40" /><path d="M521.108211 862.567298c32.300912 0 62.769404 7.994386 89.698807 16.401965C610.088421 829.978947 570.278175 790.45614 521.108211 790.45614s-88.980211 39.522807-89.698807 88.513123c26.929404-8.407579 57.397895-16.401965 89.698807-16.401965z" fill="#E64C3C" /></svg>