<?xml version="1.0" standalone="no"?><!DOCTYPE svg PUBLIC "-//W3C//DTD SVG 1.1//EN" "http://www.w3.org/Graphics/SVG/1.1/DTD/svg11.dtd"><svg class="icon" width="200px" height="200.00px" viewBox="0 0 1024 1024" version="1.1" xmlns="http://www.w3.org/2000/svg"><path d="M694.062112 281.971014c-191.390476-29.451484-265.010352 70.669427-265.010352 70.669428-136.922015-13.250518-194.340925-53.00207-194.340925-53.002071a213.951691 213.951691 0 0 1-88.336784 61.376398V882.661146c0 38.868185 31.801242 70.669427 70.669427 70.669427h600.690131c38.868185 0 70.669427-31.801242 70.669428-70.669427v-565.355418c-142.805245 83.919945-194.340925-35.334714-194.340925-35.334714z" fill="#FFDB2B" /><path d="M270.045549 600.336784a17.649689 17.649689 0 0 1-12.490822-30.158178l149.907523-149.907522a17.649689 17.649689 0 1 1 24.981642 24.981642l-149.907522 149.907522a17.614355 17.614355 0 0 1-12.490821 5.176536z" fill="#556080" /><path d="M419.970738 600.336784a17.614355 17.614355 0 0 1-12.490821-5.176536l-149.907522-149.907522a17.649689 17.649689 0 1 1 24.981642-24.981642l149.907523 149.907522a17.649689 17.649689 0 0 1-12.490822 30.158178zM632.491373 600.336784a17.649689 17.649689 0 0 1-12.490821-30.158178l149.907523-149.907522a17.649689 17.649689 0 1 1 24.981642 24.981642l-149.907522 149.907522a17.614355 17.614355 0 0 1-12.490822 5.176536z" fill="#556080" /><path d="M782.398896 600.336784a17.614355 17.614355 0 0 1-12.490821-5.176536l-149.907523-149.907522a17.649689 17.649689 0 1 1 24.981643-24.981642l149.907522 149.907522a17.649689 17.649689 0 0 1-12.490821 30.158178z" fill="#556080" /><path d="M552.723257 688.673568v137.82305c0 38.868185 31.801242 70.669427 70.669428 70.669428h17.667356c38.868185 0 70.669427-31.801242 70.669428-70.669428V688.673568c-30.175845 0.371014-126.975293 0-159.006212 0z" fill="#CC4B4C" /><path d="M632.827053 805.472464a17.667357 17.667357 0 0 1-17.667357-17.667357v-2.915114c0.017667-45.263768-1.254382-73.231194-3.798481-83.301587a17.667357 17.667357 0 0 1 12.049137-30.582195c22.808558 0 24.522291 29.522153 25.900345 53.231746 1.20138 20.72381 1.183713 44.769082 1.183713 60.687371v2.897446a17.667357 17.667357 0 0 1-17.667357 17.64969z" fill="#C03A2B" /><path d="M729.396825 706.340925h-388.681849a17.667357 17.667357 0 1 1 0-35.334714h388.681849a17.667357 17.667357 0 1 1 0 35.334714z" fill="#F29C1F" /><path d="M724.008282 1024H310.786473a23.055901 23.055901 0 0 1-23.0559-23.055901V953.330573h459.351277v47.613526a23.091235 23.091235 0 0 1-23.073568 23.055901z" fill="#FEC722" /><path d="M959.072464 317.659075c-10.953761-79.27343-45.687785-132.151829-78.990752-159.606901-16.183299-13.338854-25.423326-32.719945-30.652865-53.019738-14.116218-54.804141-66.04058-84.043616-120.032022-87.718426-34.398344-2.349758-64.415183 8.551001-98.742857 22.278537-10.794755 4.310835-23.886266-0.176674-27.985093-11.059766-21.094824-56.023188-141.939545-27.296066-234.07481 66.252588-4.416839 4.487509-12.084472 2.20842-12.96784-4.028157-3.056453-21.730849-4.646515-60.917046 20.405797-73.443202 0 0-77.860041-43.797378-144.624983 14.593236-20.352795 17.808696-33.656315 42.295652-40.440579 68.461008-1.625397 6.271912-3.286128 12.96784-4.752519 19.557764-4.098827 18.25038-27.508075 24.469289-39.539545 10.123395l-0.689027-0.883367c-11.271774-13.745204-32.878951-11.607453-39.910559 4.717184C68.602346 220.84196 10.49441 415.836577 146.374051 582.669427V361.368116a213.951691 213.951691 0 0 0 88.336784-61.376398s57.41891 39.751553 194.340925 53.002071c0 0 73.619876-100.120911 265.010352-70.669427 0 0 51.53568 119.254658 194.340925 35.334713v265.010352s94.573361-92.135266 70.669427-265.010352z" fill="#AC744F" /></svg>