<?xml version="1.0" standalone="no"?><!DOCTYPE svg PUBLIC "-//W3C//DTD SVG 1.1//EN" "http://www.w3.org/Graphics/SVG/1.1/DTD/svg11.dtd"><svg class="icon" width="200px" height="200.00px" viewBox="0 0 1024 1024" version="1.1" xmlns="http://www.w3.org/2000/svg"><path d="M544 896m-32 0a32 32 0 1 0 64 0 32 32 0 1 0-64 0Z" fill="#5FFFBA" /><path d="M416 128h192v32h-192z" fill="#2D2220" /><path d="M416 128v32h192V128h-192z m0 0v32h192V128h-192z m0 0v32h192V128h-192z m0 0v32h192V128h-192z m-96 640v32h384v-32H320z m96-640v32h192V128h-192z m-96 640v32h384v-32H320z m96-640v32h192V128h-192z m-96 640v32h384v-32H320zM736 64H288c-17.6 0-32 14.4-32 32v160h32V224h448v672c0 17.6-14.4 32-32 32H320c-17.6 0-32-14.4-32-32V416H256v512c0 17.6 14.4 32 32 32h448c17.6 0 32-14.4 32-32V96c0-17.6-14.4-32-32-32z m0 128H288V128c0-17.6 14.4-32 32-32h384c17.6 0 32 14.4 32 32v64z m-32 576H320v32h384v-32zM416 160h192V128h-192v32z m-96 608v32h384v-32H320z m96-640v32h192V128h-192z m0 0v32h192V128h-192z m0 0v32h192V128h-192z m0 0v32h192V128h-192z" fill="#2D2220" /><path d="M416 128h192v32h-192z" fill="#2D2220" /><path d="M416 128h192v32h-192z" fill="#2D2220" /><path d="M416 128h192v32h-192z" fill="#2D2220" /><path d="M448 160h192v32h-192zM480 224h32v544h-32zM416 224h32v544h-32zM544 224h192v544h-192z" fill="#5FFFBA" /><path d="M512 864m-32 0a32 32 0 1 0 64 0 32 32 0 1 0-64 0Z" fill="#2D2220" /><path d="M320 304a16 16 0 0 0-16-16h-64a16 16 0 0 0 0 32h64a16 16 0 0 0 16-16zM320 368a16 16 0 0 0-16-16h-64a16 16 0 0 0 0 32h64a16 16 0 0 0 16-16z" fill="#2D2220" /></svg>