<?xml version="1.0" standalone="no"?><!DOCTYPE svg PUBLIC "-//W3C//DTD SVG 1.1//EN" "http://www.w3.org/Graphics/SVG/1.1/DTD/svg11.dtd"><svg class="icon" width="200px" height="200.00px" viewBox="0 0 1024 1024" version="1.1" xmlns="http://www.w3.org/2000/svg"><path d="M512 0C260.042105 0 53.894737 206.147368 53.894737 458.105263V898.245614c0 39.522807 32.336842 71.859649 71.859649 71.859649h121.74821c74.734035 36.307088 165.941895 53.894737 264.497404 53.894737s189.763368-17.587649 264.497404-53.894737H898.245614c39.522807 0 71.859649-32.336842 71.859649-71.859649V458.105263C970.105263 206.147368 763.957895 0 512 0z" fill="#6E5847" /><path d="M916.210526 538.947368c-199.392561 0-368.334596-142.964772-426.97207-340.758456C246.801965 210.063719 53.894737 410.354526 53.894737 655.719298 53.894737 908.719158 259.00014 1024 512 1024S970.105263 908.719158 970.105263 655.719298c0-41.049825-5.479298-80.82414-15.611509-118.67621-12.629333 1.167719-25.384421 1.904281-38.283228 1.90428z" fill="#FDC794" /><path d="M556.930246 844.350877a17.964912 17.964912 0 0 1-9.988492-32.911719l53.930667-35.94779-53.930667-35.965754a17.982877 17.982877 0 0 1 0-29.893614l53.930667-35.947789-53.930667-35.94779a17.982877 17.982877 0 0 1 19.941053-29.893614l76.350877 50.894597a17.982877 17.982877 0 0 1 0 29.893614l-53.930666 35.947789 53.930666 35.965754a17.982877 17.982877 0 0 1 0 29.893614l-76.350877 50.894597a18.036772 18.036772 0 0 1-9.952561 3.018105z" fill="#F9A671" /><path d="M782.282105 755.712a50.984421 50.984421 0 0 1 46.726737-30.576281c28.151018 0 48.415439 23.246596 50.966456 50.966456 0 0 1.383298 6.880561-1.652772 19.258386-4.113965 16.869053-13.815018 31.851789-26.875508 43.277474L782.282105 898.245614l-67.997193-59.589614c-13.060491-11.425684-22.761544-26.426386-26.875508-43.277474-3.03607-12.377825-1.652772-19.258386-1.652772-19.258386 2.551018-27.71986 22.815439-50.966456 50.966456-50.966456 20.893193-0.017965 37.690386 12.575439 45.559017 30.558316z" fill="#E64C3C" /><path d="M413.192982 538.947368a17.911018 17.911018 0 0 1-12.701193-5.263719 89.932351 89.932351 0 0 0-127.029894 0 17.946947 17.946947 0 1 1-25.402386-25.402386 125.898105 125.898105 0 0 1 177.834666 0A17.946947 17.946947 0 0 1 413.192982 538.947368z" fill="#F9A671" /></svg>