<?xml version="1.0" standalone="no"?><!DOCTYPE svg PUBLIC "-//W3C//DTD SVG 1.1//EN" "http://www.w3.org/Graphics/SVG/1.1/DTD/svg11.dtd"><svg class="icon" width="200px" height="200.00px" viewBox="0 0 1024 1024" version="1.1" xmlns="http://www.w3.org/2000/svg"><path d="M416 288h32v480h-32zM352 288h32v480h-32zM480 320h352v448H480z" fill="#FFD561" /><path d="M896 224H160C96 224 96 288 96 288v480c0 64 64 64 64 64h96v-32H160.32C145.6 799.68 128 793.92 128 768V288.32C128.32 273.6 134.08 256 160 256h735.68c14.72 0.32 32.32 6.4 32.32 32v479.68c-0.32 14.72-6.08 32.32-32 32.32H480v32h416c64 0 64-64 64-64V288c0-64-64-64-64-64z" fill="#2D2220" /><path d="M736 288v32h64v416H192V320h480V288H160v480h672V288h-96zM864 448h32v160h-32z" fill="#2D2220" /><path d="M896 480h32v160h-32z" fill="#FFD561" /><path d="M288 800h32v32H288zM352 800h32v32h-32zM416 800h32v32h-32z" fill="#2D2220" /></svg>