<?xml version="1.0" standalone="no"?><!DOCTYPE svg PUBLIC "-//W3C//DTD SVG 1.1//EN" "http://www.w3.org/Graphics/SVG/1.1/DTD/svg11.dtd"><svg class="icon" width="200px" height="200.00px" viewBox="0 0 1024 1024" version="1.1" xmlns="http://www.w3.org/2000/svg"><path d="M398.74 230.57s-269.421 518.247-298.592 574.876c-29.171 56.629-18.876 78.938 13.728 96.1 34.319 17.163 63.493 3.434 84.086-37.754 32.605-61.778 197.346-380.963 253.973-489.075 85.804-163.025 151.011-204.209 274.57-138.998 92.666 48.048 120.125 144.146 60.062 257.409-20.592 41.184-13.728 77.222 13.728 90.95s61.778 6.863 90.95-49.767c58.347-108.113 135.568-296.876-104.679-422.147s-350.073 46.333-387.826 118.406z" fill="#FCE8D0" /><path d="M628.691 67.543c44.617 0 97.813 12.014 157.876 44.617 240.245 125.27 163.025 314.038 106.397 423.865-20.592 39.47-44.617 54.915-65.21 54.915-8.579 0-17.163-1.716-24.025-6.863-27.457-15.443-36.038-51.483-13.728-90.95 60.062-114.976 32.605-209.359-60.062-257.409-37.754-18.876-68.643-29.171-97.813-29.171-66.925 0-116.691 53.197-176.752 168.173-56.629 108.113-223.088 427.296-253.973 489.075-15.443 29.171-34.319 44.617-56.629 44.617-8.579 0-17.163-1.716-27.457-6.863-34.319-17.163-44.617-39.47-15.443-96.1 29.171-56.629 298.592-574.876 298.592-574.876 25.741-53.197 96.1-163.025 228.234-163.025M628.691 24.642c-111.542 0-204.209 65.21-267.705 187.050l-298.592 573.162c-13.728 27.457-56.629 108.113 32.605 154.447 15.443 8.579 30.89 12.014 46.333 12.014 22.308 0 65.21-8.579 94.384-68.643l253.973-489.075c66.925-126.99 106.397-145.866 138.998-145.866 20.592 0 46.333 8.579 78.938 24.025 99.53 51.483 68.643 147.58 41.184 199.062-30.89 60.062-17.163 123.555 32.605 149.295 13.728 6.863 29.171 12.014 44.617 12.014 29.171 0 70.359-13.728 104.679-78.938 30.89-60.062 66.925-140.717 63.493-228.234-5.149-106.397-68.643-192.198-187.050-253.973-61.778-29.171-121.84-46.333-178.469-46.333z" fill="#640F13" /><path d="M398.74 230.57s-269.421 518.247-298.592 574.876c-29.171 56.629-18.876 78.938 13.728 96.1 34.319 17.163 63.493 3.434 84.086-37.754 32.605-61.778 197.346-380.963 253.973-489.075 85.804-163.025 151.011-204.209 274.57-138.998 92.666 48.048 120.125 144.146 60.062 257.409-20.592 41.184-13.728 77.222 13.728 90.95s61.778 6.863 90.95-49.767c58.347-108.113 135.568-296.876-104.679-422.147s-350.073 46.333-387.826 118.406z" fill="#F1F1F2" /><path d="M855.21 532.592c-51.483-24.025 5.149-101.247 10.297-180.186s-44.617-133.852-135.568-169.888c-89.235-36.038-169.888-17.163-223.088 25.741-53.197 44.617-154.447 278-212.788 382.678s-169.888 310.606-169.888 310.606 0 1.716 1.716 3.434c29.171 8.579 53.197-6.863 72.074-42.901 32.605-61.778 197.346-380.963 253.973-489.075 85.804-163.025 151.011-204.209 274.57-138.998 92.666 48.048 120.125 144.146 60.062 257.409-20.592 41.184-13.728 77.222 13.728 90.95 25.741 13.728 54.915 6.863 82.37-36.038-6.863-1.716-17.163-8.579-27.457-13.728z" fill="#E6E7E8" /><path d="M141.332 920.419c-10.297 0-20.592-3.434-32.605-8.579-15.443-6.863-32.605-18.876-36.038-41.184-3.434-17.163 1.716-39.47 17.163-70.359l298.592-574.876c51.483-97.813 171.605-243.679 403.271-123.555 238.53 123.555 176.752 308.889 109.826 437.593-15.443 27.457-30.89 46.333-49.767 56.629-17.163 8.579-36.038 6.863-54.915-1.716-17.163-8.579-27.457-24.025-30.89-44.617-3.434-18.876 1.716-41.184 12.014-61.778 27.457-53.197 36.038-102.962 25.741-145.866-10.297-41.184-37.754-73.79-82.37-97.813-114.976-60.062-175.037-29.171-260.839 133.852l-252.259 490.789c-17.163 34.319-41.184 51.483-66.925 51.483zM398.74 230.57l10.297 5.149-300.308 574.876c-13.728 25.741-17.163 42.901-15.443 54.915 1.716 10.297 10.297 17.163 25.741 25.741 27.457 13.728 51.483 3.434 68.643-32.605l255.693-489.075c78.938-149.295 147.58-217.938 290.013-144.146 49.767 25.741 80.656 63.493 92.666 111.542 12.014 48.048 1.716 102.962-27.457 161.309-8.579 17.163-12.014 34.319-10.297 48.048 1.716 12.014 8.579 22.308 20.592 27.457 12.014 6.863 24.025 6.863 36.038 1.716 13.728-6.863 27.457-22.308 41.184-46.333 68.643-130.419 118.406-295.162-101.247-408.419-204.209-106.397-315.753 3.434-374.098 114.976l-12.014-5.149z" fill="#640F13" /><path d="M165.357 680.173l48.048 154.447c18.876-36.038 48.048-92.666 82.37-156.159l-48.048-154.447c-29.171 54.915-58.347 109.826-82.37 156.159zM398.74 230.57s-29.171 56.629-70.359 135.568l48.048 154.447c30.89-60.062 58.347-113.26 77.222-147.58l5.149-10.297-48.048-154.447c-5.149 10.297-8.579 17.163-12.014 22.308zM506.851 103.581l42.901 133.852c36.038-30.89 75.506-39.47 123.555-25.741l-46.333-144.146c-48.048 1.716-87.519 15.443-120.125 36.038zM906.691 208.259l-147.58 46.333c36.038 29.171 58.347 66.925 61.778 111.542l132.138-41.184c-5.149-39.47-17.163-78.938-46.333-116.691zM802.013 585.79c27.457 15.443 61.778 6.863 90.95-49.767 13.728-25.741 27.457-54.915 37.754-85.804l-142.433 44.617c-20.592 39.47-13.728 75.506 13.728 90.95z" fill="#DB4342" /><path d="M278.618 623.542c-25.741 46.333-56.629 101.247-82.37 151.011l18.876 60.062c6.863-12.014 13.728-25.741 20.592-41.184 1.716-1.716 1.716-3.434 3.434-5.149 6.863-13.728 13.728-27.457 22.308-42.901 0 0 0-1.716 1.716-1.716 5.149-10.297 12.014-22.308 17.163-32.605 1.716-1.716 1.716-5.149 3.434-6.863 5.149-8.579 8.579-17.163 13.728-25.741l-18.876-54.915zM439.926 306.074c-25.741 48.048-54.915 104.679-80.656 159.594l17.163 56.629c3.434-6.863 6.863-15.443 12.014-22.308 3.434-6.863 6.863-13.728 12.014-20.592 8.579-17.163 17.163-30.89 24.025-46.333 3.434-5.149 5.149-10.297 6.863-13.728 8.579-15.443 15.443-30.89 22.308-42.901l5.149-10.297-18.876-60.062zM534.308 189.383l15.443 48.048c32.605-27.457 65.21-36.038 104.679-29.171 5.149 1.716 12.014 1.716 17.163 3.434l-15.443-48.048c-46.333-3.434-87.519 6.863-121.84 25.741zM819.171 235.715l-60.062 18.876c3.434 3.434 6.863 6.863 12.014 10.297l13.728 13.728c3.434 3.434 5.149 6.863 8.579 10.297l1.716 1.716c3.434 3.434 5.149 8.579 6.863 12.014v1.716c1.716 5.149 5.149 8.579 6.863 13.728l5.149 15.443c3.434 10.297 5.149 20.592 5.149 32.605l46.333-13.728c3.434-46.333-13.728-84.086-46.333-116.691zM788.285 494.837c-10.297 20.592-13.728 39.47-10.297 54.915 0 3.434 1.716 6.863 3.434 10.297 0 0 0 1.716 1.716 1.716 1.716 3.434 3.434 5.149 5.149 8.579l8.579 8.579c1.716 1.716 5.149 3.434 8.579 5.149h1.716c3.434 1.716 6.863 3.434 10.297 3.434 1.716 0 3.434 0 5.149 1.716 1.716 0 3.434 0 5.149 1.716h10.297c1.716 0 5.149-1.716 6.863-1.716s1.716 0 3.434-1.716c3.434-1.716 5.149-1.716 8.579-3.434 0 0 1.716 0 1.716-1.716 3.434-1.716 5.149-3.434 8.579-6.863l1.716-1.716c3.434-3.434 6.863-6.863 8.579-10.297v-1.716c3.434-3.434 6.863-8.579 10.297-13.728-8.579-6.863-18.876-12.014-29.171-17.163-20.592-10.297-24.025-29.171-20.592-53.197l-49.767 17.163z" fill="#C83D3C" /><path d="M213.408 846.629c-5.149 0-8.579-3.434-10.297-6.863l-48.048-154.447v-8.579l82.37-156.159c1.716-3.434 6.863-6.863 10.297-5.149 5.149 0 8.579 3.434 8.579 6.863l48.048 154.447v8.579l-82.37 156.159c0 1.716-3.434 5.149-8.579 5.149zM177.371 681.888l39.47 125.27 66.925-128.703-39.47-125.27-66.925 128.703zM376.432 532.592c-5.149 0-8.579-3.434-10.297-6.863l-48.048-154.447v-8.579l70.359-135.568c3.434-6.863 6.863-13.728 12.014-20.592 1.716-3.434 6.863-5.149 10.297-5.149 3.434 0 8.579 3.434 8.579 6.863l48.048 154.447c1.716 3.434 0 5.149 0 8.579l-5.149 10.297-77.222 147.58c0 1.716-3.434 3.434-8.579 3.434zM340.395 367.854l39.47 125.27 66.925-128.703-39.47-125.27-66.925 128.703zM549.754 249.444h-3.434c-3.434-1.716-6.863-3.434-6.863-6.863l-42.901-133.852c-1.716-5.149 0-10.297 5.149-12.014 37.754-24.025 80.656-37.754 125.27-37.754 5.149 0 8.579 3.434 10.297 6.863l46.333 144.146c1.716 3.434 0 8.579-1.716 10.297-3.434 3.434-6.863 3.434-10.297 3.434-44.617-12.014-78.938-5.149-113.26 22.308-3.434 1.716-6.863 3.434-8.579 3.434zM520.579 108.729l34.319 111.542c30.89-22.308 63.493-29.171 101.247-22.308l-37.754-118.406c-34.319 1.716-68.643 12.014-97.813 29.171zM819.171 378.148c-1.716 0-3.434 0-6.863-1.716s-5.149-5.149-5.149-8.579c-3.434-42.901-22.308-77.222-56.629-104.679-3.434-1.716-5.149-6.863-3.434-10.297 0-3.434 3.434-6.863 6.863-8.579l149.295-46.333c5.149-1.716 8.579 0 12.014 3.434 27.457 36.038 42.901 77.222 46.333 123.555 0 5.149-3.434 10.297-6.863 10.297l-132.138 41.184c0 1.716-1.716 1.716-3.434 1.716zM779.705 259.741c25.741 25.741 42.901 56.629 48.048 92.666l109.826-34.319c-3.434-34.319-15.443-66.925-36.038-96.1l-121.84 37.754zM827.753 602.95c-10.297 0-20.592-1.716-29.171-6.863-34.319-17.163-42.901-60.062-18.876-104.679 1.716-3.434 3.434-5.149 6.863-5.149l142.433-44.617c3.434-1.716 8.579 0 10.297 3.434 3.434 3.434 3.434 6.863 1.716 10.297-12.014 36.038-27.457 66.925-39.47 87.519-15.443 27.457-30.89 46.333-49.767 56.629-6.863 1.716-15.443 3.434-24.025 3.434zM795.149 503.421c-15.443 32.605-10.297 60.062 12.014 72.074 12.014 6.863 24.025 6.863 36.038 1.716 13.728-6.863 27.457-22.308 41.184-46.333 8.579-15.443 18.876-37.754 29.171-63.493l-118.406 36.038z" fill="#640F13" /></svg>