<?xml version="1.0" standalone="no"?><!DOCTYPE svg PUBLIC "-//W3C//DTD SVG 1.1//EN" "http://www.w3.org/Graphics/SVG/1.1/DTD/svg11.dtd"><svg class="icon" width="200px" height="200.00px" viewBox="0 0 1024 1024" version="1.1" xmlns="http://www.w3.org/2000/svg"><path d="M936.96 174.08H744.92928l-37.51936-64.98304-7.99744-13.86496a87.51104 87.51104 0 0 0-15.42144-19.49696A87.97184 87.97184 0 0 0 623.14496 51.2H400.85504a87.97184 87.97184 0 0 0-60.84608 24.53504A87.808 87.808 0 0 0 324.58752 95.232L307.2 125.34784 279.07072 174.08h-67.9936c0-8.62208-7.05536-15.67744-15.67744-15.67744h-71.04512c-8.62208 0-15.67744 7.05536-15.67744 15.67744H87.04C39.168 174.08 0 213.248 0 261.12v624.64C0 933.632 39.168 972.8 87.04 972.8h849.92c47.872 0 87.04-39.168 87.04-87.04v-624.64c0-47.872-39.168-87.04-87.04-87.04z m-576.90112-58.368A47.23712 47.23712 0 0 1 400.85504 92.16h222.30016c16.77312 0 32.39936 9.02144 40.78592 23.552l33.69984 58.368H326.35904l33.69984-58.368zM40.96 768V358.4h223.90784C214.74304 415.95904 184.32 491.12064 184.32 573.44a325.87776 325.87776 0 0 0 64.19456 194.56 331.74528 331.74528 0 0 0 25.66144 30.72H40.96v-30.72z m742.52288-286.76096l0.29696 0.8704c1.4336 4.25984 2.7648 8.56064 3.9936 12.91264 0.2048 0.72704 0.41984 1.44384 0.6144 2.17088 1.08544 3.9424 2.07872 7.91552 2.99008 11.91936 0.24576 1.05472 0.50176 2.10944 0.72704 3.16416 0.80896 3.70688 1.51552 7.44448 2.18112 11.19232 0.23552 1.3312 0.49152 2.64192 0.70656 3.97312 0.57344 3.57376 1.04448 7.17824 1.49504 10.79296 0.18432 1.4848 0.4096 2.94912 0.5632 4.44416 0.38912 3.66592 0.6656 7.36256 0.91136 11.06944 0.1024 1.42336 0.24576 2.83648 0.32768 4.27008 0.27648 5.10976 0.43008 10.24 0.43008 15.42144 0 5.38624-0.17408 10.72128-0.47104 16.03584-0.08192 1.56672-0.24576 3.10272-0.3584 4.6592-0.26624 3.79904-0.58368 7.58784-1.00352 11.33568-0.18432 1.65888-0.41984 3.30752-0.63488 4.95616-0.48128 3.72736-1.01376 7.424-1.6384 11.10016-0.24576 1.45408-0.512 2.90816-0.77824 4.36224-0.74752 4.03456-1.57696 8.0384-2.49856 12.01152-0.23552 1.00352-0.45056 2.01728-0.69632 3.0208-1.18784 4.90496-2.47808 9.76896-3.91168 14.57152l-0.03072 0.1024A286.14656 286.14656 0 0 1 722.35008 768a287.8464 287.8464 0 0 1-33.23904 30.72 285.696 285.696 0 0 1-98.37568 50.39104l-1.85344 0.52224a284.12928 284.12928 0 0 1-35.97312 7.55712c-1.2288 0.17408-2.4576 0.3072-3.6864 0.47104-4.74112 0.6144-9.51296 1.11616-14.31552 1.49504A285.5936 285.5936 0 0 1 512 860.16a293.4784 293.4784 0 0 1-18.08384-0.62464c-1.61792-0.1024-3.21536-0.23552-4.82304-0.36864-4.8128-0.37888-9.58464-0.88064-14.31552-1.49504-1.2288-0.16384-2.46784-0.29696-3.6864-0.47104a284.12928 284.12928 0 0 1-35.97312-7.55712l-1.85344-0.52224a286.0544 286.0544 0 0 1-98.37568-50.39104 288.68608 288.68608 0 0 1-33.23904-30.72 286.14656 286.14656 0 0 1-64.34816-112.40448l-0.03072-0.1024c-1.4336-4.80256-2.73408-9.66656-3.91168-14.57152-0.24576-1.00352-0.4608-2.00704-0.69632-3.0208a290.18112 290.18112 0 0 1-2.49856-12.01152c-0.26624-1.45408-0.53248-2.89792-0.77824-4.36224a283.9552 283.9552 0 0 1-1.6384-11.10016c-0.21504-1.64864-0.44032-3.29728-0.63488-4.95616a294.8608 294.8608 0 0 1-1.00352-11.33568c-0.11264-1.55648-0.26624-3.09248-0.3584-4.6592A287.6928 287.6928 0 0 1 225.28 573.44c0-5.1712 0.1536-10.31168 0.41984-15.42144 0.07168-1.4336 0.22528-2.84672 0.32768-4.27008 0.256-3.70688 0.52224-7.40352 0.91136-11.06944 0.16384-1.49504 0.37888-2.95936 0.5632-4.44416 0.44032-3.61472 0.91136-7.2192 1.49504-10.79296 0.21504-1.3312 0.47104-2.65216 0.70656-3.97312 0.6656-3.75808 1.37216-7.49568 2.18112-11.19232l0.72704-3.16416c0.9216-4.00384 1.91488-7.97696 2.99008-11.91936l0.6144-2.17088c1.23904-4.352 2.57024-8.6528 3.9936-12.91264l0.29696-0.8704A286.88384 286.88384 0 0 1 322.63168 358.4a285.66528 285.66528 0 0 1 121.91744-63.62112l0.53248-0.12288a283.7504 283.7504 0 0 1 14.5408-3.072l3.13344-0.5632c4.08576-0.70656 8.192-1.32096 12.32896-1.85344 1.44384-0.18432 2.87744-0.38912 4.33152-0.55296 3.96288-0.45056 7.94624-0.78848 11.96032-1.0752 1.46432-0.1024 2.90816-0.24576 4.37248-0.32768 5.38624-0.3072 10.79296-0.49152 16.25088-0.49152s10.86464 0.18432 16.24064 0.48128c1.46432 0.08192 2.90816 0.22528 4.37248 0.32768 4.00384 0.28672 7.99744 0.62464 11.96032 1.0752 1.44384 0.16384 2.88768 0.3584 4.33152 0.55296 4.13696 0.53248 8.25344 1.14688 12.32896 1.85344l3.14368 0.5632c4.89472 0.90112 9.73824 1.92512 14.5408 3.072l0.53248 0.12288a285.72672 285.72672 0 0 1 121.91744 63.62112 287.04768 287.04768 0 0 1 82.11456 122.84928zM983.04 885.76c0 25.40544-20.67456 46.08-46.08 46.08h-849.92A46.1312 46.1312 0 0 1 40.96 885.76V819.2h254.42304c57.7536 50.944 133.55008 81.92 216.61696 81.92s158.86336-30.96576 216.61696-81.92H983.04v66.56zM983.04 768v30.72H749.824a331.74528 331.74528 0 0 0 25.66144-30.72A325.87776 325.87776 0 0 0 839.68 573.44c0-82.31936-30.42304-157.48096-80.54784-215.04H983.04v409.6z m0-450.56H716.43136C660.3776 272.61952 589.34272 245.76 512 245.76s-148.3776 26.85952-204.43136 71.68H40.96v-56.32C40.96 235.71456 61.63456 215.04 87.04 215.04h849.92c25.40544 0 46.08 20.67456 46.08 46.08V317.44z" fill="#123360" /><path d="M663.94112 115.712A47.23712 47.23712 0 0 0 623.14496 92.16H400.85504a47.21664 47.21664 0 0 0-40.78592 23.552L326.35904 174.08h371.27168l-33.6896-58.368z" fill="#56BCEC" /><path d="M936.96 215.04h-849.92A46.21312 46.21312 0 0 0 40.96 261.12V317.44h266.60864C363.6224 272.61952 434.65728 245.76 512 245.76s148.3776 26.85952 204.43136 71.68H983.04v-56.32c0-25.344-20.736-46.08-46.08-46.08zM512 901.12c-83.06688 0-158.86336-30.96576-216.61696-81.92H40.96v66.56C40.96 911.104 61.696 931.84 87.04 931.84h849.92c25.344 0 46.08-20.736 46.08-46.08V819.2H728.61696c-57.7536 50.944-133.55008 81.92-216.61696 81.92z" fill="#FFFFFF" /><path d="M184.32 573.44c0-82.31936 30.42304-157.48096 80.54784-215.04H40.96v409.6h207.55456A325.87776 325.87776 0 0 1 184.32 573.44z" fill="#56BCEC" /><path d="M248.51456 768H40.96v30.72h233.216a331.74528 331.74528 0 0 1-25.66144-30.72z" fill="#309ED5" /><path d="M759.13216 358.4C809.25696 415.95904 839.68 491.12064 839.68 573.44a325.87776 325.87776 0 0 1-64.19456 194.56H983.04V358.4H759.13216z" fill="#56BCEC" /><path d="M749.824 798.72H983.04v-30.72H775.48544a331.74528 331.74528 0 0 1-25.66144 30.72z" fill="#309ED5" /><path d="M798.30016 558.01856c-0.07168-1.4336-0.22528-2.84672-0.32768-4.27008a302.31552 302.31552 0 0 0-0.91136-11.06944c-0.16384-1.49504-0.37888-2.95936-0.5632-4.44416a287.87712 287.87712 0 0 0-1.49504-10.79296c-0.21504-1.3312-0.48128-2.65216-0.70656-3.97312a284.30336 284.30336 0 0 0-2.18112-11.19232l-0.72704-3.16416c-0.9216-4.00384-1.90464-7.97696-2.99008-11.91936-0.19456-0.72704-0.4096-1.44384-0.6144-2.17088-1.23904-4.34176-2.56-8.6528-3.9936-12.91264l-0.29696-0.8704C759.20384 409.72288 707.42016 351.0272 640.78848 317.44h0.09216c-0.57344-0.28672-1.1776-0.54272-1.75104-0.82944-3.97312-1.97632-7.9872-3.88096-12.06272-5.67296-1.19808-0.53248-2.42688-1.01376-3.6352-1.52576-3.87072-1.6384-7.76192-3.24608-11.71456-4.72064-1.75104-0.65536-3.54304-1.21856-5.31456-1.8432-3.50208-1.21856-7.00416-2.47808-10.56768-3.56352-5.39648-1.65888-10.8544-3.1744-16.384-4.51584l-0.53248-0.12288a283.7504 283.7504 0 0 0-30.01344-5.48864c-1.44384-0.18432-2.87744-0.38912-4.33152-0.55296a288.12288 288.12288 0 0 0-11.96032-1.0752c-1.46432-0.1024-2.90816-0.24576-4.37248-0.32768C522.86464 286.90432 517.44768 286.72 512 286.72s-10.86464 0.18432-16.24064 0.48128c-1.46432 0.08192-2.90816 0.22528-4.37248 0.32768-4.00384 0.28672-7.99744 0.62464-11.96032 1.0752-1.44384 0.16384-2.88768 0.36864-4.33152 0.55296-4.13696 0.53248-8.25344 1.13664-12.32896 1.85344l-3.13344 0.5632a283.7504 283.7504 0 0 0-14.5408 3.072l-0.53248 0.12288a284.672 284.672 0 0 0-16.39424 4.51584c-3.56352 1.08544-7.04512 2.33472-10.53696 3.55328-1.78176 0.62464-3.57376 1.18784-5.33504 1.85344-3.95264 1.46432-7.82336 3.072-11.69408 4.7104-1.21856 0.512-2.44736 1.00352-3.65568 1.536a281.1904 281.1904 0 0 0-12.05248 5.67296c-0.58368 0.28672-1.18784 0.53248-1.76128 0.82944h0.09216c-66.63168 33.5872-118.40512 92.28288-142.6944 163.79904l-0.29696 0.8704c-1.4336 4.25984-2.75456 8.57088-3.9936 12.91264-0.2048 0.72704-0.41984 1.44384-0.6144 2.17088-1.08544 3.93216-2.06848 7.91552-2.99008 11.91936-0.24576 1.05472-0.50176 2.10944-0.72704 3.16416-0.80896 3.70688-1.51552 7.44448-2.18112 11.19232-0.23552 1.3312-0.49152 2.64192-0.70656 3.97312-0.58368 3.57376-1.04448 7.17824-1.49504 10.79296-0.18432 1.4848-0.4096 2.94912-0.5632 4.44416-0.38912 3.66592-0.6656 7.36256-0.91136 11.06944-0.09216 1.42336-0.24576 2.83648-0.32768 4.27008a274.91328 274.91328 0 0 0 0.03072 31.45728c0.08192 1.56672 0.24576 3.10272 0.3584 4.6592 0.27648 3.79904 0.58368 7.58784 1.00352 11.33568 0.18432 1.65888 0.41984 3.30752 0.63488 4.95616 0.48128 3.71712 1.01376 7.424 1.6384 11.10016 0.24576 1.45408 0.512 2.90816 0.77824 4.36224 0.74752 4.03456 1.57696 8.0384 2.49856 12.01152 0.23552 1.00352 0.45056 2.01728 0.69632 3.0208 1.18784 4.90496 2.47808 9.76896 3.91168 14.57152l0.03072 0.1024c2.01728 6.73792 4.33152 13.34272 6.81984 19.8656 0.53248 1.3824 1.1264 2.74432 1.66912 4.11648a284.96896 284.96896 0 0 0 17.2544 35.74784c0.32768 0.58368 0.64512 1.16736 0.98304 1.7408A287.47776 287.47776 0 0 0 364.544 819.2h-0.04096l0.36864 0.2048c4.608 2.7648 9.3184 5.36576 14.09024 7.86432 0.72704 0.37888 1.42336 0.79872 2.16064 1.1776 4.9152 2.52928 9.9328 4.88448 15.01184 7.13728 0.59392 0.26624 1.1776 0.57344 1.78176 0.82944 5.40672 2.34496 10.89536 4.52608 16.47616 6.54336l0.90112 0.3584c5.90848 2.11968 11.89888 4.06528 17.9712 5.79584l1.85344 0.52224c11.70432 3.26656 23.71584 5.79584 35.97312 7.55712 1.2288 0.17408 2.4576 0.3072 3.6864 0.47104 4.74112 0.6144 9.51296 1.10592 14.31552 1.49504 1.60768 0.12288 3.21536 0.26624 4.82304 0.36864 5.98016 0.37888 12.00128 0.63488 18.08384 0.63488s12.10368-0.24576 18.08384-0.62464c1.61792-0.1024 3.21536-0.23552 4.82304-0.36864 4.80256-0.37888 9.58464-0.8704 14.31552-1.49504 1.2288-0.16384 2.46784-0.29696 3.6864-0.47104a284.12928 284.12928 0 0 0 35.97312-7.55712l1.85344-0.52224a280.54528 280.54528 0 0 0 17.9712-5.79584l0.90112-0.3584c5.57056-2.01728 11.06944-4.1984 16.47616-6.54336 0.60416-0.26624 1.1776-0.5632 1.78176-0.82944 5.07904-2.24256 10.0864-4.608 15.01184-7.13728 0.72704-0.37888 1.4336-0.79872 2.16064-1.1776 4.77184-2.5088 9.48224-5.10976 14.09024-7.86432l0.36864-0.2048H659.456a287.70304 287.70304 0 0 0 100.52608-102.11328l0.99328-1.76128a288.90112 288.90112 0 0 0 17.24416-35.7376c0.55296-1.37216 1.14688-2.73408 1.66912-4.11648 2.48832-6.52288 4.8128-13.12768 6.81984-19.8656l0.03072-0.1024c1.44384-4.80256 2.72384-9.66656 3.91168-14.57152 0.24576-1.00352 0.4608-2.00704 0.69632-3.0208 0.9216-3.97312 1.7408-7.97696 2.49856-12.01152 0.26624-1.45408 0.53248-2.89792 0.77824-4.36224 0.62464-3.67616 1.15712-7.38304 1.6384-11.10016 0.21504-1.64864 0.44032-3.29728 0.63488-4.95616 0.41984-3.75808 0.72704-7.54688 1.00352-11.33568 0.11264-1.55648 0.26624-3.09248 0.3584-4.6592 0.28672-5.33504 0.4608-10.68032 0.4608-16.05632 0-5.18144-0.1536-10.31168-0.41984-15.42144zM512 819.2c-135.7312 0-245.76-110.0288-245.76-245.76s110.0288-245.76 245.76-245.76 245.76 110.0288 245.76 245.76-110.0288 245.76-245.76 245.76z" fill="#FFFFFF" /><path d="M512 327.68c-135.7312 0-245.76 110.0288-245.76 245.76s110.0288 245.76 245.76 245.76 245.76-110.0288 245.76-245.76-110.0288-245.76-245.76-245.76z m0 450.56c-112.92672 0-204.8-91.87328-204.8-204.8s91.87328-204.8 204.8-204.8 204.8 91.87328 204.8 204.8-91.87328 204.8-204.8 204.8z" fill="#123360" /><path d="M512 368.64c-113.11104 0-204.8 91.68896-204.8 204.8s91.68896 204.8 204.8 204.8 204.8-91.68896 204.8-204.8-91.68896-204.8-204.8-204.8z m0 337.92c-73.5232 0-133.12-59.5968-133.12-133.12s59.5968-133.12 133.12-133.12 133.12 59.5968 133.12 133.12-59.5968 133.12-133.12 133.12z" fill="#2C72BA" /><path d="M512 573.44m-133.12 0a133.12 133.12 0 1 0 266.24 0 133.12 133.12 0 1 0-266.24 0Z" fill="#123360" /><path d="M603.41248 670.93504m-30.72 0a30.72 30.72 0 1 0 61.44 0 30.72 30.72 0 1 0-61.44 0Z" fill="#88B9E4" /><path d="M372.288451 525.784994a42.24 62.08512 48.511 1 0 93.013806-82.259834 42.24 62.08512 48.511 1 0-93.013806 82.259834Z" fill="#88B9E4" /><path d="M906.67008 293.53984h-82.76992a25.2416 25.2416 0 0 1-25.16992-25.16992v-0.84992a25.2416 25.2416 0 0 1 25.16992-25.16992h82.76992A25.2416 25.2416 0 0 1 931.84 267.52v0.84992a25.2416 25.2416 0 0 1-25.16992 25.16992z" fill="#F4BE39" /></svg>