<?xml version="1.0" standalone="no"?><!DOCTYPE svg PUBLIC "-//W3C//DTD SVG 1.1//EN" "http://www.w3.org/Graphics/SVG/1.1/DTD/svg11.dtd"><svg class="icon" width="200px" height="200.00px" viewBox="0 0 1024 1024" version="1.1" xmlns="http://www.w3.org/2000/svg"><path d="M868.711408 716.471947c63.18294-6.308157 95.86024 72.903707 46.431152 112.613051-11.168541 8.99688-22.749708 17.476699-34.642136 25.438431l-11.789016-138.051482zM193.240949 107.183387c39.709345-49.533524 118.921209-16.752812 112.613051 46.32774-1.758011 17.063049-2.58531 34.435311-2.58531 51.91201l-145.600589-48.085751A529.572944 529.572944 0 0 1 193.240949 107.183387z" fill="#B27214" /><path d="M868.711408 716.471947l11.789016 138.051482c-81.797175 55.013359-180.242725 87.071208-286.237381 87.071208-284.375958 0-513.531732-229.155775-513.531733-513.531732 0-99.376262 28.230566-192.135153 77.040204-270.725519l145.497176 48.189163c0 283.445246 230.086486 513.531732 513.531732 513.531732 17.475675-0.001024 34.847937-0.828323 51.910986-2.586334z" fill="#F7B239" /><path d="M191.172701 428.062905c0-86.657558 21.508759-168.350297 59.35668-239.909642l-92.86128-30.815877c-48.809637 78.59139-77.040203 171.349257-77.040203 270.725519 0 284.375958 229.155775 513.531732 513.531732 513.531732 18.614235 0 37.020622-1.034124 55.116771-2.99896C391.166173 911.191387 191.172701 693.824628 191.172701 428.062905z" fill="#E09B2D" /><path d="M658.066457 769.210232c-1.654599 0-3.309197-0.206825-4.963796-0.723886-93.998816-27.196442-180.656374-78.59139-250.767946-148.702962-78.798215-78.798215-133.191099-177.140352-157.389605-284.582782-2.171661-9.617355 3.826259-19.130273 13.443614-21.301935 9.617355-2.171661 19.130273 3.826259 21.301935 13.443615 22.749708 100.824036 73.834419 193.169277 147.772249 267.209496 65.76825 65.76825 147.255187 114.060825 235.462908 139.602669 9.41053 2.688723 14.891388 12.616315 12.202666 22.025821-2.171661 7.962756-9.307118 13.029965-17.062025 13.029964z" fill="#FFFFFF" /><path d="M249.495257 254.024925m-17.786936 0a17.786936 17.786936 0 1 0 35.573871 0 17.786936 17.786936 0 1 0-35.573871 0Z" fill="#FFFFFF" /><path d="M950.714384 748.942422c-13.960676-34.228486-46.948214-53.980258-83.762011-50.257411a505.79935 505.79935 0 0 1-50.153998 2.481898c-132.363799 0-256.765866-51.601773-350.454446-145.290351-93.688579-93.688579-145.290351-218.194058-145.290351-350.454445a505.79935 505.79935 0 0 1 2.481898-50.153999c3.722847-36.917209-16.028925-69.801334-50.257411-83.762011-34.021662-13.857264-70.938871-4.239909-93.998816 24.507719-75.074344 93.794039-116.438287 211.6801-116.438287 332.049083 0 142.291391 55.116771 275.89614 155.321356 375.996288 100.203561 100.203561 233.704897 155.321356 375.996288 155.321356 120.368983 0 238.255043-41.363943 331.944646-116.43931 28.851041-23.059945 38.468396-59.977155 24.611132-93.998817z m-743.617195-630.590493c10.237829-12.719727 22.956533-17.373286 34.745549-17.373287 6.41157 0 12.616315 1.344361 17.889324 3.516023 15.305038 6.308157 30.815877 21.922409 28.230566 47.258451-0.930712 9.720767-1.654599 19.440511-2.068248 29.26469l-100.617211-33.297775a539.337738 539.337738 0 0 1 21.82002-29.368102z m36.296735 660.579071c-93.481754-93.481754-144.876702-217.987233-144.876702-350.868095 0-89.139456 22.956533-174.03798 67.009199-249.320172l119.955333 39.709344c3.205785 137.017358 58.219143 265.349097 155.528181 362.760523 100.513798 100.410386 233.911722 155.735006 375.686051 155.735006 11.892428 0 23.783832-0.41365 35.67626-1.240949l9.307118 109.820916c-79.625514 51.394948-171.142432 78.281153-267.519734 78.281152-132.778473-0.001024-257.386341-51.499384-350.765706-144.877725z m660.476682 36.193322c-2.792135 2.275073-5.584271 4.446734-8.376405 6.618395l-7.342282-86.140496c15.098213 4.136497 24.921369 15.511863 29.471515 26.886204 6.308157 15.098213 5.894508 36.917209-13.752828 52.635897z" fill="#333333" /><path d="M737.173885 819.984706c-13.547027 1.137537-27.196442 1.654599-40.846882 1.654598-132.777449 0-257.386341-51.49836-350.868094-144.876701-93.378342-93.481754-144.876702-217.987233-144.876702-350.868095 0-19.647335 1.137537-39.399107 3.41261-58.839618 1.137537-9.82418-5.791095-18.613211-15.615276-19.750748-9.720767-1.137537-18.613211 5.791095-19.750747 15.615275-2.481898 20.784872-3.722847 41.984418-3.722847 62.976115 0 142.291391 55.116771 275.89614 155.321356 375.996288s233.704897 155.321356 375.996288 155.321356c14.581151 0 29.26469-0.620475 43.742429-1.758011 9.82418-0.827299 17.063049-9.41053 16.339162-19.233686-0.723887-9.721791-9.307118-17.064073-19.131297-16.236773z" fill="#333333" /></svg>