<?xml version="1.0" standalone="no"?><!DOCTYPE svg PUBLIC "-//W3C//DTD SVG 1.1//EN" "http://www.w3.org/Graphics/SVG/1.1/DTD/svg11.dtd"><svg class="icon" width="200px" height="200.00px" viewBox="0 0 1024 1024" version="1.1" xmlns="http://www.w3.org/2000/svg"><path d="M691 730.1c6 0 10.9-4.9 10.9-10.9V211c0-6-4.9-10.9-10.9-10.9H332.7c-6 0-10.9 4.9-10.9 10.9v508.2c0 6 4.9 10.9 10.9 10.9H691z" fill="#FFFFFF" /><path d="M824.5 254.6c55.2 0 100.2 44.9 100.2 100.2v327.3c0 55.2-44.9 100.2-100.2 100.2H200.6c-55.2 0-100.2-44.9-100.2-100.2V354.8c0-55.2 44.9-100.2 100.2-100.2h623.9m0-35H200.6c-74.7 0-135.2 60.5-135.2 135.2v327.3c0 74.7 60.5 135.2 135.2 135.2h623.9c74.7 0 135.2-60.5 135.2-135.2V354.8c0-74.7-60.6-135.2-135.2-135.2z" fill="#39000E" /><path d="M824.5 254.6H200.6c-55.2 0-100.2 44.9-100.2 100.2v327.3c0 55.2 44.9 100.2 100.2 100.2h623.9c55.2 0 100.2-44.9 100.2-100.2V354.8c0-55.2-45-100.2-100.2-100.2z" fill="#75EAD8" /><path d="M324.8 162.5c12.9 0 23.4 10.5 23.4 23.4v32.7H221.1v-32.7c0-12.9 10.5-23.4 23.4-23.4h80.3m0-35h-80.4c-32.2 0-58.4 26.2-58.4 58.4v32.7c0 19.3 15.7 35 35 35h127.1c19.3 0 35-15.7 35-35v-32.7c0.1-32.2-26.1-58.4-58.3-58.4z" fill="#39000E" /><path d="M348.2 185.9c0-12.9-10.5-23.4-23.4-23.4h-80.4c-12.9 0-23.4 10.5-23.4 23.4v32.7h127.1v-32.7z" fill="#EF7D85" /><path d="M156.3 682.2V354.8c0-55.2 44.9-100.2 100.2-100.2h-56c-55.2 0-100.2 44.9-100.2 100.2v327.3c0 55.2 44.9 100.2 100.2 100.2h56c-55.2 0-100.2-44.9-100.2-100.1z" fill="#EAFFCD" /><path d="M89 581.7h851.2v23.4H89zM89 656.4h851.2v23.4H89zM89 508.9h851.2v23.4H89z" fill="#39000E" /><path d="M511.7 352.4c-44.5 0-86.3 17.3-117.7 48.8-31.4 31.4-48.8 73.3-48.8 117.7s17.3 86.3 48.8 117.7c31.4 31.4 73.3 48.8 117.7 48.8 44.5 0 86.3-17.3 117.7-48.8s48.8-73.3 48.8-117.7-17.3-86.3-48.8-117.7c-31.4-31.5-73.3-48.8-117.7-48.8z" fill="#FFFFFF" /><path d="M511.7 715.1c-52.4 0-101.7-20.4-138.7-57.5-37.1-37.1-57.5-86.3-57.5-138.7 0-36.7 10.2-72.5 29.4-103.4 4.4-7 13.6-9.2 20.7-4.8 7 4.4 9.2 13.6 4.8 20.7-16.3 26.1-24.9 56.4-24.9 87.5 0 44.4 17.3 86.1 48.7 117.5s73.1 48.7 117.5 48.7c44.4 0 86.1-17.3 117.5-48.7 31.4-31.4 48.7-73.1 48.7-117.5 0-44.4-17.3-86.1-48.7-117.5-31.4-31.4-73.1-48.7-117.5-48.7-32.1 0-63.2 9.1-90 26.4-7 4.5-16.2 2.5-20.7-4.5s-2.5-16.2 4.5-20.7c31.6-20.4 68.3-31.2 106.2-31.2 52.4 0 101.7 20.4 138.7 57.5 37.1 37.1 57.5 86.3 57.5 138.7 0 52.4-20.4 101.7-57.5 138.7-37 37.1-86.3 57.5-138.7 57.5z" fill="#39000E" /><path d="M824.5 254.6h-30.7c55.2 0 100.2 44.9 100.2 100.2v327.3c0 55.2-44.9 100.2-100.2 100.2h30.7c55.2 0 100.2-44.9 100.2-100.2V354.8c0-55.2-45-100.2-100.2-100.2z" fill="#FFFFFF" /><path d="M511.7 620.7c-27.2 0-52.7-10.6-72-29.8-19.2-19.2-29.8-44.8-29.8-72 0-27.2 10.6-52.7 29.8-72 19.2-19.2 44.8-29.8 72-29.8 27.2 0 52.7 10.6 72 29.8 19.2 19.2 29.8 44.8 29.8 72 0 27.2-10.6 52.8-29.8 72-19.3 19.2-44.8 29.8-72 29.8z m0-183.6c-21.8 0-42.4 8.5-57.8 24-15.4 15.4-24 36-24 57.8 0 21.8 8.5 42.4 24 57.8s36 24 57.8 24c21.8 0 42.4-8.5 57.8-24 15.4-15.4 24-36 24-57.8 0-21.8-8.5-42.4-24-57.8-15.4-15.5-36-24-57.8-24z" fill="#39000E" /><path d="M511.7 437.1c-21.8 0-42.4 8.5-57.8 24-15.4 15.4-24 36-24 57.8 0 21.8 8.5 42.4 24 57.8s36 24 57.8 24c21.8 0 42.4-8.5 57.8-24 15.4-15.4 24-36 24-57.8 0-21.8-8.5-42.4-24-57.8-15.4-15.5-36-24-57.8-24z" fill="#EF7D85" /><path d="M256.5 162.5h-12.1c-12.9 0-23.4 10.5-23.4 23.4v32.7h35.5v-56.1z" fill="#EAFFCD" /></svg>